<?xml version="1.0" encoding="UTF-8"?>
<!DOCTYPE svg PUBLIC "-//W3C//DTD SVG 1.1//EN" "http://www.w3.org/Graphics/SVG/1.1/DTD/svg11.dtd">
<!-- Creator: CorelDRAW X8 -->
<svg xmlns="http://www.w3.org/2000/svg" xml:space="preserve" width="9.93055in" height="7.125in" version="1.1" style="shape-rendering:geometricPrecision; text-rendering:geometricPrecision; image-rendering:optimizeQuality; fill-rule:evenodd; clip-rule:evenodd"
viewBox="0 0 9931 7125"
 xmlns:xlink="http://www.w3.org/1999/xlink">
 <defs>
  <style type="text/css">
   <![CDATA[
    .fil1 {fill:black}
    .fil0 {fill:red}
   ]]>
  </style>
   <clipPath id="id0" style="clip-rule:nonzero">
    <path d="M2615 5034l4778 0 -4 3 -4771 0 -3 -3z"/>
   </clipPath>
 </defs>
 <g id="Layer_x0020_1">
  <metadata id="CorelCorpID_0Corel-Layer"/>
  <g style="clip-path:url(#id0)">
   <image transform="matrix(344.009 -0 -0 -0.236958 2615.22 5036.86)" x="0" y="0" width="13.8898" height="13.8898" xlink:href="Heart of  Angles_Images\Heart of  Angles_ImgID1.png"/>
  </g>
  <path class="fil0" d="M4691 1666c9,34 20,62 35,91 12,12 159,226 255,23 69,-145 -31,-287 -47,-415 -9,-74 17,-154 52,-196 -20,101 -13,169 38,243 33,48 56,103 59,166 3,51 -13,58 -5,69 13,-22 19,-22 33,-53 9,-21 14,-41 17,-67 33,72 41,202 -9,280 -22,34 -42,45 -54,60l5 0c17,-10 40,-15 58,-25 49,-28 90,-68 108,-128 56,-182 -106,-301 -149,-463 -27,-103 -4,-191 6,-283l-2 0c-13,10 -54,32 -109,77 -27,22 -60,62 -82,99 -120,197 -13,446 -83,462 -42,9 -54,-85 -56,-122 -5,-92 12,-187 47,-270 2,-6 4,-11 7,-16 3,-7 4,-8 7,-16 -25,21 -69,94 -91,137 -63,118 -72,222 -40,347z"/>
  <path class="fil1" d="M2898 3557c3,-17 -1,-69 1,-94 12,-162 78,-321 170,-450 12,-18 27,-60 12,-81 -14,23 -28,36 -49,60 -38,42 -93,133 -118,190 -223,510 9,1200 155,1702 31,106 61,210 87,321 12,54 23,114 28,172 8,85 -2,109 -13,186 118,-24 161,-113 175,-249 16,-139 -4,-232 -41,-355 -64,-210 -138,-409 -205,-617 -89,-275 -213,-749 -60,-1032 58,-107 26,-26 68,-144 22,-60 43,-93 66,-144 -28,4 -66,7 -81,22 -34,35 -92,142 -113,190 -55,122 -63,180 -82,323z"/>
  <path class="fil1" d="M3385 5355c94,-29 130,-176 133,-275 7,-226 -106,-427 -182,-613 -103,-255 -238,-729 -117,-997 23,-51 25,-28 35,-96 -7,3 -68,57 -91,71 -40,24 -42,34 -58,121 -9,55 -13,113 -11,169 2,39 18,126 15,150 3,-10 -22,-95 -27,-121 -15,-91 -16,-199 5,-289 9,-38 4,-30 -4,-64 -6,-22 -4,-48 -10,-67 -78,128 -68,382 -42,540 50,315 177,640 277,940 67,202 98,292 77,531z"/>
  <path class="fil1" d="M3424 2444c42,-34 96,-72 155,-83 18,-36 39,-68 62,-98 -98,18 -202,95 -217,181zm66 316c-41,95 -63,212 -30,311 15,48 28,61 50,96 34,51 94,97 163,133l9 5c-27,-47 -53,-95 -76,-144 -66,-139 -109,-286 -116,-401z"/>
  <path class="fil1" d="M3563 5046c100,-60 89,-251 52,-374 -35,-117 -96,-219 -142,-329 -76,-183 -149,-493 -64,-690 16,-36 34,-45 28,-86 -12,7 -3,1 -12,9 -1,1 -8,8 -9,9 -76,84 -86,49 -101,120 -19,89 -16,149 -12,236 -24,-58 -29,-146 -25,-218 3,-58 16,-52 -6,-105 -13,-31 -16,-61 -22,-95l-13 25c-1,4 -4,18 -5,23 -11,55 -17,112 -17,168 0,205 49,403 115,590 116,330 179,323 233,717z"/>
  <path class="fil1" d="M3682 4755c131,-218 -9,-354 -78,-524 -50,-123 -82,-313 -34,-448 34,-97 60,-60 43,-123 -18,17 -37,54 -54,71 -32,30 -35,3 -53,66 -33,115 -13,146 -20,212 0,-13 -13,-51 -16,-76 -14,-142 37,-185 -16,-268 -49,67 -42,226 -33,314 20,186 93,359 172,520 20,39 37,80 52,123 11,33 26,109 37,133z"/>
  <path class="fil1" d="M3304 2777c-8,18 -15,20 -30,38 -9,11 -22,25 -31,36 9,-11 16,-21 26,-35 6,-6 10,-13 15,-19l20 -20zm-176 209c77,-14 155,-56 218,-100 128,-89 39,-15 130,-195l16 -29c2,-22 5,-44 9,-65l-11 9 -124 115c-10,11 -18,18 -27,29 -6,6 -7,9 -14,15 0,1 -9,7 -9,8 -14,8 8,0 -12,4 9,-24 134,-156 166,-186 13,-12 26,-24 39,-36 11,-50 26,-97 44,-141 -41,18 -80,48 -95,59 -126,98 -324,370 -330,513z"/>
  <path class="fil1" d="M2962 2892l0 0zm-149 452c38,-149 84,-240 162,-349 128,-178 124,-82 221,-286 -140,65 -182,135 -218,162 20,-92 258,-221 282,-251 15,-19 25,-34 40,-51 13,-15 33,-35 40,-52 -105,19 -242,118 -317,191 -16,16 -23,28 -40,45 -61,60 -123,187 -148,281 -13,48 -21,97 -25,149 -5,60 3,113 3,161z"/>
  <path class="fil1" d="M3660 4030c1,-21 0,27 0,0zm98 428c164,-80 -104,-322 -53,-555 19,-85 57,-105 90,-148l-14 -34c-16,19 -30,44 -46,62 -22,26 -28,17 -45,58 -26,64 -29,110 -30,183 -21,-36 -17,-102 -12,-148 4,-40 31,-85 -16,-129 -27,80 -42,79 -42,196 -1,254 130,384 168,515z"/>
  <path class="fil1" d="M3218 3212l0 0zm-91 202c49,-19 118,-96 152,-137 14,-16 32,-35 45,-53 28,-40 51,-69 76,-117 24,-45 2,-59 0,-169 -46,47 -126,169 -161,237 -3,6 -6,14 -10,20 0,1 -1,2 -2,3 0,1 -1,3 -2,4 -8,13 -3,6 -7,10 3,-44 68,-164 95,-209 13,-22 29,-46 37,-64 -91,41 -128,76 -176,179 -45,96 -65,183 -47,296z"/>
  <path class="fil1" d="M3110 2520l15 -21c-1,1 -3,2 -3,4 0,2 -4,5 -5,7 -8,12 0,-5 -7,10zm-186 230l13 -12c4,-4 7,-8 10,-12 90,-112 278,-243 424,-262l26 -77c-70,5 -160,36 -218,71 -24,15 -35,33 -54,41 23,-44 108,-96 171,-121 141,-57 98,1 186,-90l9 -10c-251,0 -534,216 -567,472z"/>
  <path class="fil1" d="M3292 3440c-1,53 -3,136 28,172 93,-53 202,-235 206,-367 -32,-22 -42,-44 -68,-71 -21,74 -101,294 -111,340l74 -352c-77,131 -124,106 -129,278z"/>
  <path class="fil1" d="M3548 3599l5 -234 -77 155c-4,40 25,156 41,186 40,-32 74,-94 99,-154 24,-59 52,-131 54,-200 -17,-15 -62,-39 -82,-50 -10,87 -16,216 -40,297z"/>
  <path class="fil1" d="M3894 3597c-2,35 -6,66 -14,87 -1,-40 -3,-75 -6,-110 -11,-12 -21,-24 -31,-36l-27 98c-13,42 19,115 43,141 34,-23 64,-70 86,-127 -18,-17 -35,-34 -51,-53z"/>
  <path class="fil1" d="M3695 3761c52,-37 94,-161 114,-267 -25,-32 -49,-66 -72,-101 -7,98 -1,223 -33,305 1,-82 13,-181 -3,-260 -21,122 -76,98 -36,250 6,23 14,56 30,73z"/>
  <path class="fil1" d="M3280 2276c67,-18 120,-42 204,-41 85,1 23,17 111,-8 28,-8 56,-10 85,-10 3,-4 7,-8 11,-12 -54,-32 -160,-30 -221,-17 -81,17 -136,49 -190,88z"/>
  <path class="fil1" d="M7054 3455c-4,-16 -3,-68 -6,-93 -21,-161 -95,-317 -194,-441 -13,-17 -30,-58 -16,-80 15,22 29,35 52,57 40,40 100,128 128,183 250,498 54,1200 -65,1708 -25,108 -49,214 -69,326 -9,55 -17,114 -19,173 -3,85 8,109 23,185 -119,-18 -166,-104 -188,-239 -23,-138 -8,-233 22,-357 53,-213 116,-415 172,-627 74,-279 173,-759 5,-1034 -64,-103 -27,-24 -76,-140 -24,-58 -47,-91 -73,-140 28,2 66,3 82,18 35,33 99,136 123,183 62,119 73,177 99,318z"/>
  <path class="fil1" d="M6663 5277c-96,-24 -139,-169 -147,-268 -19,-225 83,-432 149,-622 90,-260 199,-740 64,-1002 -25,-49 -27,-26 -41,-93 8,2 72,53 96,66 41,21 43,32 63,117 13,54 19,112 20,169 1,39 -11,126 -6,150 -4,-9 17,-96 20,-122 10,-92 6,-200 -20,-288 -11,-38 -6,-30 1,-65 4,-21 1,-48 6,-67 85,123 88,378 71,537 -34,317 -143,649 -227,954 -56,204 -83,296 -49,534z"/>
  <path class="fil1" d="M6470 2372c-45,-32 -100,-67 -160,-75 -20,-34 -42,-66 -67,-95 99,14 206,84 227,170zm-49 319c45,93 73,208 46,309 -13,48 -24,62 -45,98 -31,53 -89,102 -155,142l-10 5c25,-48 48,-98 69,-147 59,-143 93,-292 95,-407z"/>
  <path class="fil1" d="M6469 4978c-103,-55 -102,-246 -72,-371 29,-119 85,-224 125,-336 66,-187 122,-500 27,-692 -18,-36 -37,-43 -33,-85 13,7 3,1 13,8 1,1 8,8 9,9 81,79 89,44 108,115 23,88 23,147 24,235 21,-60 21,-148 13,-219 -6,-59 -18,-52 1,-106 11,-31 12,-61 17,-96l14 24c2,5 5,18 6,23 14,54 23,111 26,167 11,204 -27,405 -83,596 -99,335 -162,331 -195,728z"/>
  <path class="fil1" d="M6335 4694c-142,-211 -10,-354 50,-529 43,-125 65,-316 10,-448 -39,-95 -63,-57 -50,-121 19,16 40,52 58,68 33,29 35,2 57,63 39,113 21,145 30,211 0,-13 11,-51 12,-77 7,-142 -47,-183 2,-268 53,64 55,223 50,311 -10,188 -74,365 -144,529 -17,40 -33,82 -45,125 -10,34 -20,111 -30,136z"/>
  <path class="fil1" d="M6607 2698c9,18 16,19 32,37 10,10 24,24 33,34 -10,-11 -17,-20 -28,-33 -6,-7 -11,-13 -16,-19l-21 -19zm187 200c-78,-10 -158,-48 -223,-89 -132,-82 -40,-13 -140,-188l-18 -28c-3,-22 -7,-43 -12,-64l12 8 129 108c11,11 19,18 29,28 6,6 7,8 14,14 1,1 9,7 10,7 15,8 -9,1 12,4 -10,-23 -142,-148 -176,-177 -13,-11 -27,-23 -40,-34 -14,-49 -31,-95 -52,-138 42,15 82,43 98,54 131,90 344,352 357,495z"/>
  <path class="fil1" d="M6955 2794l0 0zm172 444c-46,-147 -96,-235 -180,-340 -138,-171 -128,-75 -236,-273 143,57 189,125 226,149 -24,-90 -269,-206 -295,-235 -15,-18 -26,-32 -42,-49 -14,-14 -35,-33 -43,-50 106,13 248,105 326,174 18,15 26,27 43,43 64,57 133,181 163,272 15,48 27,97 33,148 8,59 2,113 5,161z"/>
  <path class="fil1" d="M6318 3968c-1,-20 1,27 0,0zm-75 433c-168,-71 87,-328 23,-557 -23,-84 -62,-102 -98,-143l13 -35c17,18 32,42 49,60 23,25 29,16 48,55 29,63 35,108 40,182 19,-38 11,-103 4,-149 -6,-40 -36,-83 9,-129 32,77 46,76 53,192 14,255 -110,391 -141,524z"/>
  <path class="fil1" d="M6716 3128l0 0zm102 197c-50,-17 -123,-90 -160,-129 -14,-16 -33,-33 -47,-50 -30,-39 -55,-67 -83,-113 -25,-43 -5,-59 -9,-169 49,44 136,162 174,228 4,6 7,13 11,19 0,1 1,3 2,4 1,1 1,2 2,3 9,13 4,6 8,10 -6,-44 -76,-160 -106,-204 -14,-21 -31,-44 -40,-62 93,36 131,70 185,170 50,93 75,179 63,293z"/>
  <path class="fil1" d="M6787 2431l-16 -20c1,1 3,2 3,4 1,2 4,5 5,6 9,12 1,-5 8,10zm198 220l-13 -11c-4,-4 -8,-8 -11,-12 -96,-107 -291,-227 -438,-239l-30 -76c71,2 162,28 221,60 25,14 37,31 57,38 -26,-43 -113,-90 -177,-112 -144,-49 -98,7 -191,-80l-10 -9c251,-14 545,187 592,441z"/>
  <path class="fil1" d="M6654 3360c4,52 10,136 -18,173 -96,-48 -215,-224 -226,-356 31,-24 40,-46 64,-75 26,73 116,289 129,335l-93 -348c85,126 130,99 144,271z"/>
  <path class="fil1" d="M6407 3532l-17 -234 85 151c6,40 -17,157 -31,188 -42,-30 -79,-90 -107,-149 -28,-57 -60,-128 -65,-197 16,-15 60,-42 79,-53 15,86 28,214 56,294z"/>
  <path class="fil1" d="M6062 3548c3,35 9,66 18,86 -1,-40 -1,-75 0,-109 10,-13 20,-26 29,-39l32 97c16,41 -13,116 -35,143 -36,-21 -67,-67 -92,-122 16,-17 32,-36 48,-56z"/>
  <path class="fil1" d="M6269 3701c-54,-34 -103,-156 -128,-260 23,-34 45,-69 66,-105 13,98 14,223 50,303 -5,-82 -23,-180 -11,-260 27,121 81,95 49,248 -4,23 -11,57 -26,74z"/>
  <path class="fil1" d="M6604 2196c-68,-14 -122,-35 -206,-30 -85,6 -22,19 -111,-2 -28,-6 -56,-6 -85,-5 -4,-4 -8,-8 -12,-11 52,-35 158,-39 220,-29 82,13 138,41 194,77z"/>
  <path class="fil0" d="M3461 2662c-48,551 184,963 416,1329 48,77 137,188 243,310 221,-76 514,-122 834,-122 348,0 663,54 890,143 106,-120 191,-227 234,-297 136,-219 291,-438 378,-761 235,-879 -363,-1792 -1069,-1488 -100,43 -173,92 -238,160 -77,81 -71,107 -133,196 -21,30 -24,31 -45,55 -127,-384 -518,-558 -839,-471 -362,75 -640,581 -671,946z"/>
  <path class="fil1" d="M5504 2409c-2,-13 -1,-28 3,-45 4,-17 10,-33 17,-49 7,-15 16,-29 26,-40 10,-11 20,-18 31,-19 11,-2 22,-3 35,-5 12,-1 24,-2 34,-1 11,0 20,3 27,8 7,5 12,12 13,23 2,11 0,23 -4,35 -5,12 -10,23 -17,34 -6,11 -13,19 -19,27 -7,7 -12,11 -14,11 -3,0 -4,-4 -4,-13 0,-8 0,-18 1,-28 0,-10 0,-20 0,-29 0,-8 -1,-12 -3,-12 -8,1 -15,5 -21,11 -7,6 -12,14 -17,23 -5,9 -9,19 -12,29 -3,10 -4,20 -4,28 0,9 1,16 4,21 2,5 6,8 12,7 3,0 7,-1 13,-2 7,0 14,0 22,-1 8,0 17,1 26,1 9,1 17,3 25,5 7,4 13,7 19,13 5,5 8,12 9,20 2,9 0,18 -3,29 -4,10 -8,21 -15,32 -6,10 -14,21 -22,32 -9,10 -18,20 -26,28 -9,8 -18,15 -26,21 -9,5 -15,8 -21,9 -9,1 -17,0 -24,-2 -8,-2 -14,-5 -19,-8 -4,-4 -7,-7 -8,-10 -1,-3 0,-4 4,-5 5,-1 10,-4 18,-9 6,-5 13,-11 21,-19 7,-8 14,-16 21,-26 8,-9 14,-18 20,-27 5,-8 10,-17 13,-23 3,-7 5,-13 4,-16 -24,6 -45,7 -65,6 -8,-1 -16,-2 -24,-5 -9,-2 -17,-6 -23,-11 -7,-5 -13,-11 -18,-19 -4,-8 -7,-18 -9,-29z"/>
  <path class="fil1" d="M5365 2116c-3,-12 0,-20 7,-24 8,-4 16,-6 26,-4 10,2 20,5 29,11 9,7 14,15 16,23 1,6 2,18 3,35 0,17 1,37 2,61 0,24 1,49 2,76 1,28 2,54 3,81 0,26 2,50 4,73 1,23 4,41 6,54 4,22 9,39 14,54 5,15 10,27 15,37 5,10 9,17 13,23 4,6 7,10 9,13 1,2 2,5 1,6 -2,1 -6,2 -11,3 -8,2 -18,0 -30,-5 -12,-5 -23,-14 -35,-26 -12,-13 -22,-28 -32,-47 -7,-12 -12,-26 -16,-41 -5,12 -11,23 -19,34 -8,12 -17,22 -29,31 -12,8 -26,14 -41,16 -21,2 -40,1 -58,-5 -18,-6 -33,-15 -46,-26 -13,-12 -24,-24 -32,-39 -8,-14 -13,-29 -15,-43 -3,-20 -3,-38 -1,-56 2,-18 5,-35 10,-50 4,-15 9,-29 16,-41 5,-12 11,-21 16,-27 5,-6 13,-10 22,-14 9,-4 19,-6 29,-8 9,-1 18,-2 28,-2 9,0 16,1 21,3 9,3 18,10 26,21 7,12 12,26 14,42 4,31 1,54 -11,71 -11,18 -26,28 -45,30 -8,1 -15,1 -23,1 -8,-1 -15,-2 -22,-3 0,15 4,28 9,42 6,13 12,25 20,35 8,10 16,18 25,23 9,6 18,9 26,7 13,-1 24,-5 33,-13 10,-6 18,-14 24,-24 7,-9 12,-19 16,-30l1 -1 0 0c-3,-18 -6,-39 -8,-63 -2,-23 -4,-49 -5,-75 -1,-27 -2,-53 -2,-80 -1,-26 -2,-51 -2,-73 0,-22 -1,-40 -1,-56 0,-16 -1,-26 -2,-30zm-90 222c-8,1 -15,5 -21,11 -6,6 -10,14 -14,24 -3,9 -6,20 -7,32 -2,12 -3,24 -3,37 14,3 25,3 34,-1 8,-4 16,-9 20,-18 6,-7 9,-17 10,-27 2,-10 2,-19 1,-28 -2,-9 -4,-16 -7,-22 -4,-6 -8,-8 -13,-8z"/>
  <path class="fil1" d="M5178 2691c20,6 36,15 48,28 12,13 21,27 27,41 7,15 10,29 12,42 1,13 0,24 -2,31 -5,15 -15,30 -30,48 -16,17 -35,35 -58,52 -23,18 -48,34 -76,50 -27,16 -56,30 -84,40 -29,11 -57,18 -85,22 -27,4 -52,2 -75,-5 -7,-2 -17,-7 -28,-14 -11,-8 -23,-16 -34,-25 -10,-10 -20,-21 -27,-32 -7,-12 -9,-23 -7,-33 3,-12 10,-22 20,-32 10,-9 22,-17 37,-24 14,-7 29,-14 45,-19 16,-5 30,-9 43,-11 13,-3 24,-4 33,-4 8,0 12,1 11,4 -1,2 -5,5 -11,8 -7,2 -15,6 -25,9 -10,3 -21,7 -32,12 -12,4 -23,10 -34,16 -10,6 -20,13 -28,21 -8,8 -15,17 -18,27 -4,12 -1,20 8,25 9,6 23,9 41,9 17,1 38,-1 62,-5 24,-3 49,-9 76,-16 26,-8 52,-17 79,-28 26,-11 50,-23 72,-35 22,-13 42,-27 57,-43 16,-15 27,-31 32,-47 4,-11 2,-22 -3,-32 -6,-11 -18,-18 -35,-24 -24,-7 -48,-10 -73,-8 -25,1 -49,5 -71,10 -2,4 -3,6 -5,6 -3,0 -5,-1 -7,-3 -13,3 -26,7 -37,12 -12,4 -22,7 -31,10 -9,3 -16,6 -22,8 -6,2 -10,2 -12,2 -2,-1 -5,-3 -8,-6 -4,-4 -7,-8 -10,-13 -3,-6 -5,-12 -6,-18 -1,-7 0,-14 2,-20 4,-11 16,-21 35,-27 19,-7 41,-12 67,-15l-1 -3c0,-4 -1,-8 -1,-13 -1,-4 -2,-9 -2,-14l0 0c-11,1 -22,0 -35,-4 -13,-4 -25,-10 -36,-21 -12,-10 -22,-24 -31,-41 -9,-18 -16,-39 -19,-65 -2,-13 -2,-28 1,-44 2,-16 6,-31 10,-47 5,-15 11,-31 18,-46 6,-15 13,-28 21,-40 7,-11 14,-20 21,-27 7,-8 12,-11 18,-12 12,-2 23,-1 32,2 8,4 15,8 20,14 5,6 8,12 10,17 2,6 3,11 4,14 0,2 -2,6 -7,11 -5,4 -11,11 -19,20 -7,8 -15,19 -24,30 -8,12 -16,26 -22,41 -7,16 -12,33 -14,52 -3,20 -3,41 0,65 3,24 9,40 19,48 10,7 20,9 31,4 0,-8 -1,-16 -1,-25 0,-8 0,-16 0,-23 -1,-6 0,-11 1,-15 0,-4 1,-6 2,-6 7,-1 13,2 19,9 5,7 10,15 15,26 11,-18 19,-41 25,-68 6,-28 7,-59 2,-93 0,-4 1,-6 5,-8 5,-1 9,0 15,2 5,2 10,5 15,11 5,6 8,15 9,25 1,9 1,20 -1,35 -2,15 -5,31 -10,47 -5,17 -12,34 -21,49 -8,17 -18,30 -30,41 1,6 1,14 2,23 0,8 0,17 0,26 13,-1 25,-1 37,-1 13,0 24,0 35,1 12,1 21,2 31,4 9,1 17,3 23,5z"/>
  <path class="fil1" d="M4847 2384c0,5 0,12 0,21 -1,9 -1,20 -2,33 0,12 -1,25 -2,39 0,13 -1,27 -2,40 0,13 0,25 -1,36 0,11 1,21 2,28 3,22 5,39 8,50 3,11 6,19 8,25 3,6 4,10 6,12 1,3 2,6 3,10 1,4 -4,7 -13,9 -9,1 -20,-1 -32,-6 -13,-5 -25,-15 -36,-28 -11,-13 -19,-32 -22,-56 -2,-16 -4,-33 -5,-51 -1,-17 -1,-33 -2,-50 0,-17 0,-33 1,-47 1,-15 1,-29 2,-40 -4,12 -7,25 -10,41 -3,16 -6,34 -10,52 -3,19 -6,38 -10,57 -3,19 -7,37 -10,53 -3,17 -6,32 -10,45 -3,13 -6,23 -10,28 0,3 -1,5 -4,7l-2 0c-2,1 -4,2 -7,2 -14,2 -27,-2 -38,-10 -11,-9 -20,-20 -28,-34 -8,-14 -14,-29 -20,-46 -5,-17 -9,-33 -12,-48 -3,-15 -5,-28 -6,-39 -2,-10 -2,-16 -3,-18 0,-3 0,-5 -2,-6 0,0 -1,-1 -2,-2 -1,-1 -3,-2 -3,-3 -1,0 -1,-2 -2,-5 0,-3 5,-5 13,-8 9,-3 19,-4 31,-5 11,0 21,1 31,4 10,4 15,10 16,19 1,3 2,9 3,17 0,9 2,18 2,27 1,10 2,20 4,29 0,10 1,17 2,21 1,8 2,15 4,21 1,7 3,13 4,19 2,-13 5,-28 8,-44 4,-16 7,-34 11,-52 4,-18 8,-36 13,-53 5,-18 10,-35 16,-50 5,-16 10,-29 17,-40 6,-12 12,-19 19,-24 1,-1 2,-2 5,-3 1,-1 2,-1 3,-2 1,0 2,0 3,0 2,0 4,-1 6,-1 2,0 4,0 5,0 9,-1 16,-1 18,1 10,1 19,4 28,8 8,4 13,10 14,17z"/>
  <path class="fil1" d="M4411 2399c-3,-21 -6,-43 -9,-64 -2,-21 -5,-41 -7,-59 -3,18 -7,41 -13,68 -5,27 -12,57 -19,89 10,-7 19,-13 27,-19 8,-6 15,-11 21,-15zm-278 406c12,0 24,-8 36,-23 11,-15 23,-35 35,-60 12,-24 24,-53 34,-85 12,-32 23,-65 33,-100 -21,18 -42,37 -63,57 -20,20 -38,40 -55,59 -16,19 -29,38 -38,56 -10,18 -15,34 -15,48 0,9 2,17 4,24 2,6 6,12 10,17 5,5 11,7 19,7zm402 -224c7,27 14,49 22,67 8,19 15,34 22,46 7,12 14,21 19,28 5,7 9,12 12,16 2,4 2,6 1,8 -2,1 -5,3 -12,4 -9,3 -21,1 -35,-5 -13,-6 -27,-16 -42,-30 -15,-14 -30,-33 -43,-56 -14,-24 -26,-52 -35,-85 -6,-22 -12,-46 -16,-72 -5,-26 -10,-53 -14,-80 -6,5 -15,11 -25,19 -10,8 -22,17 -34,27 -7,27 -15,56 -22,85 -8,29 -16,57 -26,84 -9,28 -19,53 -28,77 -10,24 -20,45 -31,63 -10,18 -21,32 -32,42 -12,10 -23,16 -34,16 -20,0 -36,-2 -49,-5 -12,-4 -22,-10 -30,-17 -7,-7 -12,-16 -15,-25 -2,-10 -4,-21 -4,-32 -1,-21 5,-42 17,-64 12,-23 27,-46 46,-69 19,-23 41,-45 64,-67 24,-22 48,-43 72,-62 6,-23 12,-45 18,-68 6,-22 11,-43 16,-64 5,-20 9,-39 12,-57 4,-17 8,-32 10,-46 -25,13 -49,27 -73,41 -24,15 -46,30 -65,45 -19,15 -35,31 -47,46 -12,16 -17,31 -17,45 0,6 -2,9 -6,9 -5,1 -9,0 -14,-4 -5,-3 -10,-7 -14,-14 -4,-6 -7,-14 -7,-23 0,-18 5,-35 16,-52 12,-16 27,-32 45,-47 18,-14 37,-28 60,-41 22,-13 44,-24 65,-35 21,-11 41,-21 59,-30 17,-8 30,-16 40,-23 -2,-12 2,-21 10,-27 9,-5 18,-8 30,-7 11,0 21,3 32,10 11,6 17,15 21,25 1,8 4,21 7,39 2,18 5,39 8,63 2,24 6,50 9,78 3,28 7,56 11,83 4,28 8,54 12,78 4,25 9,46 14,63z"/>
  <path class="fil1" d="M5006 3205c7,-1 14,0 20,2 7,3 13,8 18,15 5,7 10,16 15,27 4,12 7,27 9,44 3,17 4,35 3,53 -1,18 -4,35 -9,50 -5,15 -12,28 -21,38 -10,10 -23,17 -38,19 -14,1 -26,-1 -36,-7 -10,-5 -18,-13 -24,-23 -7,-10 -12,-21 -16,-33 -4,-12 -6,-24 -8,-36 -1,-10 -2,-21 -2,-33 -1,-12 0,-22 2,-32 2,-10 5,-19 10,-27 5,-7 11,-13 19,-16 2,-8 5,-14 9,-19 4,-5 9,-10 14,-13 6,-3 12,-5 18,-6 6,-1 11,-2 17,-3zm17 221c5,-1 9,-6 13,-16 3,-10 6,-22 7,-37 2,-15 2,-31 2,-47 -1,-17 -2,-32 -5,-47 -3,-14 -7,-25 -13,-34 -5,-9 -12,-13 -21,-12 -3,0 -6,4 -6,9 -1,5 -2,11 -2,18 -1,7 -1,14 -2,21 -1,8 -3,13 -7,17 2,14 3,29 4,44 2,15 3,30 5,42 2,13 5,23 9,31 3,8 9,12 16,11zm248 -349c10,-2 17,-1 24,3 7,3 12,7 15,12 4,4 6,8 6,12 0,4 0,7 -3,7 -2,0 -4,0 -6,0 -2,0 -4,0 -6,-1 -3,0 -7,0 -11,0 -4,0 -10,0 -18,1 -14,2 -31,5 -49,11 -18,5 -37,11 -56,16 0,14 1,28 2,44 0,17 1,34 3,51 1,18 2,37 4,55 2,19 4,37 6,54 4,26 8,48 12,66 5,18 9,34 13,46 4,12 8,21 11,27 3,7 5,12 7,16 2,3 2,5 1,6 -1,1 -3,2 -7,2 -12,2 -23,-2 -34,-12 -11,-9 -21,-22 -30,-38 -9,-17 -17,-35 -24,-56 -6,-20 -11,-40 -14,-61 -2,-19 -4,-37 -5,-54 -2,-16 -3,-32 -4,-47 -1,-14 -2,-29 -2,-42 0,-13 -1,-27 -2,-39 -9,3 -18,5 -27,6 -9,2 -18,4 -26,5 -9,1 -16,0 -23,-2 -6,-3 -11,-6 -15,-10 -4,-5 -8,-9 -10,-15 -2,-4 -4,-9 -4,-13 -1,-3 0,-5 2,-5 2,-1 5,-1 9,0 4,0 9,0 16,1 6,0 15,0 24,-1 8,-1 17,-3 26,-4 9,-2 18,-3 27,-5 0,-24 1,-46 4,-65 2,-18 6,-34 13,-47 5,-13 14,-23 24,-30 10,-8 24,-13 39,-15 9,-1 17,0 25,3 8,3 14,6 20,10 4,4 8,8 9,11 2,4 1,6 -3,7 -12,1 -24,4 -32,9 -8,5 -16,12 -21,21 -5,9 -9,20 -11,33 -3,14 -4,30 -4,49 22,-5 43,-9 62,-14 19,-4 33,-7 43,-8z"/>
  <path class="fil1" d="M5775 3461c7,-1 10,0 10,3 -1,2 -4,5 -10,8 -9,4 -20,8 -35,13 -14,5 -30,10 -47,14 -17,5 -36,10 -55,15 -19,4 -38,9 -57,13 -1,16 -2,33 -2,50 -1,18 -1,35 -1,51 0,17 -1,32 0,47 0,15 1,28 3,39 2,20 6,37 10,51 3,14 7,26 11,35 4,10 8,17 11,23 3,5 5,9 7,12 1,3 1,5 0,6 -1,1 -4,2 -9,2 -7,1 -15,-1 -24,-6 -9,-6 -18,-15 -27,-27 -9,-12 -17,-27 -24,-46 -8,-18 -13,-39 -16,-64 -3,-23 -5,-49 -5,-78 0,-28 0,-57 1,-84 -10,2 -21,3 -30,3 -10,1 -19,2 -27,2 -12,0 -24,-1 -34,-3 -10,-2 -20,-4 -30,-7 -9,-3 -17,-6 -25,-10 -8,-3 -15,-6 -21,-10 -6,-2 -8,-5 -7,-8 1,-2 4,-3 7,-3 24,2 51,2 80,0 29,-1 59,-3 89,-6l1 -14c1,-18 2,-34 3,-47 1,-13 1,-23 0,-28 -1,-10 1,-18 6,-21 6,-3 13,-4 20,-2 8,2 15,6 22,12 7,7 11,14 12,23 1,4 1,11 1,21 0,9 0,20 0,33l-1 16c21,-3 40,-6 59,-9 19,-3 37,-5 54,-8 17,-2 32,-4 46,-7 14,-2 25,-3 34,-4z"/>
  <path class="fil1" d="M5414 3566c7,-1 13,-1 20,-2 7,0 13,0 19,1 5,2 11,5 15,9 4,5 6,12 8,21 1,10 2,19 2,28 -1,9 -1,17 -3,24 -2,7 -4,14 -8,18 -4,5 -9,8 -15,9 -12,1 -22,1 -30,-2 -9,-3 -13,-7 -14,-12 0,-2 0,-7 0,-12 0,-6 0,-11 0,-17 1,-6 1,-13 1,-21 -7,22 -14,43 -19,64 -2,9 -5,18 -7,28 -2,10 -4,20 -5,30 -2,10 -3,19 -4,28 -1,10 -1,18 0,27 2,8 5,14 7,20 2,5 4,10 6,13 2,4 3,6 4,8 1,3 2,5 2,7 0,2 -1,4 -5,7 -3,2 -8,3 -14,3 -6,0 -13,-2 -20,-5 -7,-4 -14,-11 -21,-22 -7,-8 -13,-20 -18,-35 -3,9 -6,18 -9,27 -4,14 -10,25 -15,36 -6,10 -12,16 -18,20 -2,1 -4,1 -8,2 -7,1 -14,-1 -20,-4 -6,-4 -12,-9 -17,-15 -5,-6 -10,-13 -14,-20 -3,-7 -7,-14 -10,-21 -2,-6 -4,-11 -6,-15 -2,-4 -3,-6 -3,-6 -1,0 -1,2 -2,5 -1,4 -3,8 -4,13 -2,6 -4,12 -7,18 -2,7 -5,12 -8,18 -4,6 -7,11 -12,14 -5,5 -11,7 -17,8 -9,1 -19,1 -27,-2 -8,-2 -16,-6 -23,-12 -7,-6 -14,-14 -19,-25 -1,-3 -2,-6 -3,-9 -3,6 -7,12 -11,18 -6,9 -14,17 -23,24 -9,7 -20,11 -32,12 -17,3 -32,1 -45,-4 -15,-4 -27,-11 -37,-20 -10,-9 -19,-19 -25,-30 -6,-12 -10,-23 -12,-35 -2,-15 -2,-29 -1,-43 2,-14 4,-28 8,-40 1,-4 3,-9 4,-13 -21,-3 -43,-5 -66,-3 1,21 3,43 5,66 2,23 5,46 8,68 2,17 5,32 9,43 4,11 7,20 10,27 2,6 3,11 3,14 0,4 -4,6 -10,7 -11,1 -21,-4 -30,-17 -9,-13 -17,-30 -24,-51 -7,-21 -13,-44 -18,-71 -5,-27 -9,-53 -12,-79 -8,1 -17,3 -25,5 -8,2 -16,4 -24,7 3,23 5,47 6,71 1,24 1,46 1,66 -1,25 -5,46 -12,65 -7,20 -15,35 -24,48 -10,13 -19,22 -29,28 -10,7 -19,9 -28,9 -5,0 -8,-1 -9,-2 -1,-1 -1,-3 1,-6 2,-3 4,-7 8,-13 3,-6 7,-14 11,-23 3,-10 6,-22 10,-37 3,-14 5,-31 6,-52 1,-16 0,-36 -1,-59 -2,-23 -4,-47 -6,-71 -19,8 -35,17 -50,26 -15,9 -27,18 -37,27 -3,1 -7,0 -11,-4 -4,-3 -7,-7 -11,-13 -3,-5 -5,-10 -8,-16 -2,-5 -2,-8 -1,-10 0,-2 3,-6 9,-9 6,-4 14,-9 23,-14 10,-4 22,-9 35,-15 14,-5 29,-10 46,-14 -1,-13 -2,-25 -4,-37 -1,-12 -3,-22 -3,-32 -1,-8 -3,-16 -3,-26 -2,-9 -3,-18 -5,-28 -2,-10 -4,-19 -7,-29 -3,-9 -6,-17 -10,-24 -4,-7 -9,-13 -15,-17 -6,-3 -12,-5 -20,-4 -10,1 -21,5 -30,11 -10,6 -19,13 -27,22 -8,9 -15,18 -22,29 -6,10 -12,21 -16,31 -4,11 -7,21 -9,30 -2,9 -2,17 -2,23 1,5 1,10 -1,13 -1,3 -2,5 -5,6 -1,0 -4,-1 -6,-3 -2,-2 -3,-7 -4,-13 -1,-8 -1,-18 1,-30 2,-11 6,-23 10,-35 5,-12 12,-24 19,-35 8,-12 17,-22 27,-32 9,-9 20,-18 32,-24 12,-7 26,-11 39,-13 15,-2 29,1 43,8 13,7 25,18 36,35 12,16 21,36 29,62 9,25 15,55 20,90l1 7c8,-2 16,-3 24,-4 8,0 16,-1 24,-1 -1,-17 -3,-32 -4,-47 -2,-15 -3,-28 -4,-40 -1,-12 -2,-22 -3,-29 0,-8 -1,-14 -1,-16 -1,-3 -1,-6 -1,-8 0,-2 1,-4 2,-6 1,-2 3,-4 6,-5 3,-2 7,-3 12,-3 5,-1 11,0 16,2 6,2 10,5 15,8 4,4 8,8 12,12 3,5 5,9 5,13 1,2 1,6 1,12 1,7 1,15 1,26 1,11 1,22 2,36 1,14 2,29 2,44 21,1 42,4 64,9 3,0 6,1 9,3 1,-3 2,-5 3,-8 5,-9 9,-16 13,-21 5,-5 10,-8 18,-11 7,-3 14,-5 22,-6 8,-1 15,-2 22,-2 7,0 13,1 17,2 7,3 14,8 20,17 6,9 10,20 12,33 3,24 0,42 -9,56 -8,14 -20,22 -36,23 -6,1 -11,1 -18,1 -6,-1 -12,-1 -17,-2 0,11 3,22 7,33 5,10 10,19 16,27 6,8 12,14 20,19 7,4 14,6 20,5 10,-1 19,-4 26,-10 8,-5 14,-11 19,-19 3,-4 6,-9 9,-14 -1,-4 -2,-8 -2,-12 -2,-15 -2,-31 0,-50 1,-19 5,-37 12,-54 6,-17 15,-31 27,-44 11,-12 26,-19 43,-22 13,-1 24,-2 34,-3 10,0 19,1 27,4 8,3 15,9 20,18 6,8 9,21 11,37 1,2 0,3 -1,5 -2,1 -4,2 -6,3 -2,1 -4,1 -6,1 -2,-1 -3,-2 -3,-5 -1,-2 -1,-6 -2,-11 -2,-5 -4,-11 -6,-16 -2,-5 -5,-9 -8,-13 -3,-4 -7,-5 -12,-4 -11,1 -22,7 -31,17 -9,11 -17,25 -23,41 -5,17 -10,35 -12,55 -2,21 -1,41 1,62 1,4 2,9 3,14 1,5 2,10 4,14 2,4 4,8 6,11 3,3 6,4 10,3 2,0 4,-3 7,-8 2,-5 5,-11 7,-19 2,-9 4,-17 6,-27 2,-9 4,-19 5,-28 1,-8 2,-17 2,-25 1,-7 1,-13 0,-17 0,-2 0,-4 0,-8 0,-3 0,-6 2,-9 1,-2 3,-5 7,-7 4,-2 9,-4 16,-5 15,-2 26,-1 32,3 7,5 11,9 12,14l1 8c1,7 3,18 5,31 1,13 4,26 6,39 3,13 5,24 9,33 3,9 6,13 10,13 1,0 4,-4 7,-12 2,-7 5,-17 9,-28 3,-11 6,-24 9,-38l0 0c-4,-15 -7,-33 -10,-53 -1,-11 -2,-24 -4,-37 -1,-14 -1,-27 -1,-38 0,-12 1,-21 3,-29 2,-8 5,-12 9,-13 16,-2 28,0 37,6 8,6 13,14 14,23 1,5 1,10 1,15 -1,6 -1,12 -1,18 -1,6 -1,13 -1,21 0,7 1,15 2,23 2,17 5,32 7,44 1,-10 2,-21 4,-33 2,-13 4,-25 7,-38 3,-12 5,-24 9,-36 3,-12 6,-23 10,-32 4,-9 7,-17 11,-23 3,-5 7,-8 11,-9zm-434 96c-6,1 -12,4 -16,9 -5,4 -8,11 -11,18 -3,7 -5,16 -6,25 -2,10 -2,19 -2,30 10,2 19,2 26,-1 7,-3 13,-7 17,-14 4,-6 6,-13 7,-21 2,-8 1,-16 1,-23 -1,-6 -3,-12 -6,-17 -3,-5 -6,-6 -10,-6z"/>
 </g>
</svg>
