<?xml version="1.0" encoding="UTF-8"?>
<svg width="4331px" height="4595px" viewBox="0 0 4331 4595" version="1.1" xmlns="http://www.w3.org/2000/svg" xmlns:xlink="http://www.w3.org/1999/xlink">
    <!-- Generator: Sketch 46.2 (44496) - http://www.bohemiancoding.com/sketch -->
    <title>angels-of-heart-logo</title>
    <desc>Created with Sketch.</desc>
    <defs></defs>
    <g id="Page-1" stroke="none" stroke-width="1" fill="none" fill-rule="evenodd">
        <g id="angels-of-heart-logo">
            <path d="M1883,698 C1892,732 1903,760 1918,789 C1930,801 2077,1015 2173,812 C2242,667 2142,525 2126,397 C2117,323 2143,243 2178,201 C2158,302 2165,370 2216,444 C2249,492 2272,547 2275,610 C2278,661 2262,668 2270,679 C2283,657 2289,657 2303,626 C2312,605 2317,585 2320,559 C2353,631 2361,761 2311,839 C2289,873 2269,884 2257,899 L2262,899 C2279,889 2302,884 2320,874 C2369,846 2410,806 2428,746 C2484,564 2322,445 2279,283 C2252,180 2275,92 2285,0 L2283,0 C2270,10 2229,32 2174,77 C2147,99 2114,139 2092,176 C1972,373 2079,622 2009,638 C1967,647 1955,553 1953,516 C1948,424 1965,329 2000,246 C2002,240 2004,235 2007,230 C2010,223 2011,222 2014,214 C1989,235 1945,308 1923,351 C1860,469 1851,573 1883,698 Z" id="Shape" fill="#FF0000"></path>
            <path d="M90,2589 C93,2572 89,2520 91,2495 C103,2333 169,2174 261,2045 C273,2027 288,1985 273,1964 C259,1987 245,2000 224,2024 C186,2066 131,2157 106,2214 C-117,2724 115,3414 261,3916 C292,4022 322,4126 348,4237 C360,4291 371,4351 376,4409 C384,4494 374,4518 363,4595 C481,4571 524,4482 538,4346 C554,4207 534,4114 497,3991 C433,3781 359,3582 292,3374 C203,3099 79,2625 232,2342 C290,2235 258,2316 300,2198 C322,2138 343,2105 366,2054 C338,2058 300,2061 285,2076 C251,2111 193,2218 172,2266 C117,2388 109,2446 90,2589 Z" id="Shape" fill="#FFFFFF"></path>
            <path d="M577,4387 C671,4358 707,4211 710,4112 C717,3886 604,3685 528,3499 C425,3244 290,2770 411,2502 C434,2451 436,2474 446,2406 C439,2409 378,2463 355,2477 C315,2501 313,2511 297,2598 C288,2653 284,2711 286,2767 C288,2806 304,2893 301,2917 C304,2907 279,2822 274,2796 C259,2705 258,2597 279,2507 C288,2469 283,2477 275,2443 C269,2421 271,2395 265,2376 C187,2504 197,2758 223,2916 C273,3231 400,3556 500,3856 C567,4058 598,4148 577,4387 Z" id="Shape" fill="#FFFFFF"></path>
            <path d="M616,1476 C658,1442 712,1404 771,1393 C789,1357 810,1325 833,1295 C735,1313 631,1390 616,1476 Z M682,1792 C641,1887 619,2004 652,2103 C667,2151 680,2164 702,2199 C736,2250 796,2296 865,2332 L874,2337 C847,2290 821,2242 798,2193 C732,2054 689,1907 682,1792 Z" id="Shape" fill="#FFFFFF"></path>
            <path d="M755,4078 C855,4018 844,3827 807,3704 C772,3587 711,3485 665,3375 C589,3192 516,2882 601,2685 C617,2649 635,2640 629,2599 C617,2606 626,2600 617,2608 C616,2609 609,2616 608,2617 C532,2701 522,2666 507,2737 C488,2826 491,2886 495,2973 C471,2915 466,2827 470,2755 C473,2697 486,2703 464,2650 C451,2619 448,2589 442,2555 L429,2580 C428,2584 425,2598 424,2603 C413,2658 407,2715 407,2771 C407,2976 456,3174 522,3361 C638,3691 701,3684 755,4078 Z" id="Shape" fill="#FFFFFF"></path>
            <path d="M874,3787 C1005,3569 865,3433 796,3263 C746,3140 714,2950 762,2815 C796,2718 822,2755 805,2692 C787,2709 768,2746 751,2763 C719,2793 716,2766 698,2829 C665,2944 685,2975 678,3041 C678,3028 665,2990 662,2965 C648,2823 699,2780 646,2697 C597,2764 604,2923 613,3011 C633,3197 706,3370 785,3531 C805,3570 822,3611 837,3654 C848,3687 863,3763 874,3787 Z" id="Shape" fill="#FFFFFF"></path>
            <path d="M496,1809 C488,1827 481,1829 466,1847 C457,1858 444,1872 435,1883 C444,1872 451,1862 461,1848 C467,1842 471,1835 476,1829 L496,1809 Z M320,2018 C397,2004 475,1962 538,1918 C666,1829 577,1903 668,1723 L684,1694 C686,1672 689,1650 693,1629 L682,1638 L558,1753 C548,1764 540,1771 531,1782 C525,1788 524,1791 517,1797 C517,1798 508,1804 508,1805 C494,1813 516,1805 496,1809 C505,1785 630,1653 662,1623 C675,1611 688,1599 701,1587 C712,1537 727,1490 745,1446 C704,1464 665,1494 650,1505 C524,1603 326,1875 320,2018 Z" id="Shape" fill="#FFFFFF"></path>
            <path d="M5,2376 C43,2227 89,2136 167,2027 C295,1849 291,1945 388,1741 C248,1806 206,1876 170,1903 C190,1811 428,1682 452,1652 C467,1633 477,1618 492,1601 C505,1586 525,1566 532,1549 C427,1568 290,1667 215,1740 C199,1756 192,1768 175,1785 C114,1845 52,1972 27,2066 C14,2114 6,2163 2,2215 C-3,2275 5,2328 5,2376 Z" id="Shape" fill="#FFFFFF"></path>
            <path d="M950,3490 C1114,3410 846,3168 897,2935 C916,2850 954,2830 987,2787 L973,2753 C957,2772 943,2797 927,2815 C905,2841 899,2832 882,2873 C856,2937 853,2983 852,3056 C831,3020 835,2954 840,2908 C844,2868 871,2823 824,2779 C797,2859 782,2858 782,2975 C781,3229 912,3359 950,3490 Z" id="Shape" fill="#FFFFFF"></path>
            <path d="M319,2446 C368,2427 437,2350 471,2309 C485,2293 503,2274 516,2256 C544,2216 567,2187 592,2139 C616,2094 594,2080 592,1970 C546,2017 466,2139 431,2207 C428,2213 425,2221 421,2227 C421,2228 420,2229 419,2230 C419,2231 418,2233 417,2234 C409,2247 414,2240 410,2244 C413,2200 478,2080 505,2035 C518,2013 534,1989 542,1971 C451,2012 414,2047 366,2150 C321,2246 301,2333 319,2446 Z" id="Shape" fill="#FFFFFF"></path>
            <path d="M302,1552 L317,1531 C316,1532 314,1533 314,1535 C314,1537 310,1540 309,1542 C301,1554 309,1537 302,1552 Z M116,1782 L129,1770 C133,1766 136,1762 139,1758 C229,1646 417,1515 563,1496 L589,1419 C519,1424 429,1455 371,1490 C347,1505 336,1523 317,1531 C340,1487 425,1435 488,1410 C629,1353 586,1411 674,1320 L683,1310 C432,1310 149,1526 116,1782 Z" id="Shape" fill="#FFFFFF"></path>
            <path d="M484,2472 C483,2525 481,2608 512,2644 C605,2591 714,2409 718,2277 C686,2255 676,2233 650,2206 C629,2280 549,2500 539,2546 L613,2194 C536,2325 489,2300 484,2472 Z" id="Shape" fill="#FFFFFF"></path>
            <path d="M740,2631 L745,2397 L668,2552 C664,2592 693,2708 709,2738 C749,2706 783,2644 808,2584 C832,2525 860,2453 862,2384 C845,2369 800,2345 780,2334 C770,2421 764,2550 740,2631 Z" id="Shape" fill="#FFFFFF"></path>
            <path d="M1086,2629 C1084,2664 1080,2695 1072,2716 C1071,2676 1069,2641 1066,2606 C1055,2594 1045,2582 1035,2570 L1008,2668 C995,2710 1027,2783 1051,2809 C1085,2786 1115,2739 1137,2682 C1119,2665 1102,2648 1086,2629 Z" id="Shape" fill="#000000"></path>
            <path d="M887,2793 C939,2756 981,2632 1001,2526 C976,2494 952,2460 929,2425 C922,2523 928,2648 896,2730 C897,2648 909,2549 893,2470 C872,2592 817,2568 857,2720 C863,2743 871,2776 887,2793 Z" id="Shape" fill="#FFFFFF"></path>
            <path d="M472,1308 C539,1290 592,1266 676,1267 C761,1268 699,1284 787,1259 C815,1251 843,1249 872,1249 C875,1245 879,1241 883,1237 C829,1205 723,1207 662,1220 C581,1237 526,1269 472,1308 Z" id="Shape" fill="#FFFFFF"></path>
            <path d="M4246,2487 C4242,2471 4243,2419 4240,2394 C4219,2233 4145,2077 4046,1953 C4033,1936 4016,1895 4030,1873 C4045,1895 4059,1908 4082,1930 C4122,1970 4182,2058 4210,2113 C4460,2611 4264,3313 4145,3821 C4120,3929 4096,4035 4076,4147 C4067,4202 4059,4261 4057,4320 C4054,4405 4065,4429 4080,4505 C3961,4487 3914,4401 3892,4266 C3869,4128 3884,4033 3914,3909 C3967,3696 4030,3494 4086,3282 C4160,3003 4259,2523 4091,2248 C4027,2145 4064,2224 4015,2108 C3991,2050 3968,2017 3942,1968 C3970,1970 4008,1971 4024,1986 C4059,2019 4123,2122 4147,2169 C4209,2288 4220,2346 4246,2487 Z" id="Shape" fill="#FFFFFF"></path>
            <path d="M3855,4309 C3759,4285 3716,4140 3708,4041 C3689,3816 3791,3609 3857,3419 C3947,3159 4056,2679 3921,2417 C3896,2368 3894,2391 3880,2324 C3888,2326 3952,2377 3976,2390 C4017,2411 4019,2422 4039,2507 C4052,2561 4058,2619 4059,2676 C4060,2715 4048,2802 4053,2826 C4049,2817 4070,2730 4073,2704 C4083,2612 4079,2504 4053,2416 C4042,2378 4047,2386 4054,2351 C4058,2330 4055,2303 4060,2284 C4145,2407 4148,2662 4131,2821 C4097,3138 3988,3470 3904,3775 C3848,3979 3821,4071 3855,4309 Z" id="Shape" fill="#FFFFFF"></path>
            <path d="M3662,1404 C3617,1372 3562,1337 3502,1329 C3482,1295 3460,1263 3435,1234 C3534,1248 3641,1318 3662,1404 Z M3613,1723 C3658,1816 3686,1931 3659,2032 C3646,2080 3635,2094 3614,2130 C3583,2183 3525,2232 3459,2272 L3449,2277 C3474,2229 3497,2179 3518,2130 C3577,1987 3611,1838 3613,1723 Z" id="Shape" fill="#FFFFFF"></path>
            <path d="M3661,4010 C3558,3955 3559,3764 3589,3639 C3618,3520 3674,3415 3714,3303 C3780,3116 3836,2803 3741,2611 C3723,2575 3704,2568 3708,2526 C3721,2533 3711,2527 3721,2534 C3722,2535 3729,2542 3730,2543 C3811,2622 3819,2587 3838,2658 C3861,2746 3861,2805 3862,2893 C3883,2833 3883,2745 3875,2674 C3869,2615 3857,2622 3876,2568 C3887,2537 3888,2507 3893,2472 L3907,2496 C3909,2501 3912,2514 3913,2519 C3927,2573 3936,2630 3939,2686 C3950,2890 3912,3091 3856,3282 C3757,3617 3694,3613 3661,4010 Z" id="Shape" fill="#FFFFFF"></path>
            <path d="M3527,3726 C3385,3515 3517,3372 3577,3197 C3620,3072 3642,2881 3587,2749 C3548,2654 3524,2692 3537,2628 C3556,2644 3577,2680 3595,2696 C3628,2725 3630,2698 3652,2759 C3691,2872 3673,2904 3682,2970 C3682,2957 3693,2919 3694,2893 C3701,2751 3647,2710 3696,2625 C3749,2689 3751,2848 3746,2936 C3736,3124 3672,3301 3602,3465 C3585,3505 3569,3547 3557,3590 C3547,3624 3537,3701 3527,3726 Z" id="Shape" fill="#FFFFFF"></path>
            <path d="M3799,1730 C3808,1748 3815,1749 3831,1767 C3841,1777 3855,1791 3864,1801 C3854,1790 3847,1781 3836,1768 C3830,1761 3825,1755 3820,1749 L3799,1730 Z M3986,1930 C3908,1920 3828,1882 3763,1841 C3631,1759 3723,1828 3623,1653 L3605,1625 C3602,1603 3598,1582 3593,1561 L3605,1569 L3734,1677 C3745,1688 3753,1695 3763,1705 C3769,1711 3770,1713 3777,1719 C3778,1720 3786,1726 3787,1726 C3802,1734 3778,1727 3799,1730 C3789,1707 3657,1582 3623,1553 C3610,1542 3596,1530 3583,1519 C3569,1470 3552,1424 3531,1381 C3573,1396 3613,1424 3629,1435 C3760,1525 3973,1787 3986,1930 Z" id="Shape" fill="#FFFFFF"></path>
            <path d="M4319,2270 C4273,2123 4223,2035 4139,1930 C4001,1759 4011,1855 3903,1657 C4046,1714 4092,1782 4129,1806 C4105,1716 3860,1600 3834,1571 C3819,1553 3808,1539 3792,1522 C3778,1508 3757,1489 3749,1472 C3855,1485 3997,1577 4075,1646 C4093,1661 4101,1673 4118,1689 C4182,1746 4251,1870 4281,1961 C4296,2009 4308,2058 4314,2109 C4322,2168 4316,2222 4319,2270 Z" id="Shape" fill="#FFFFFF"></path>
            <path d="M3435,3433 C3267,3362 3522,3105 3458,2876 C3435,2792 3396,2774 3360,2733 L3373,2698 C3390,2716 3405,2740 3422,2758 C3445,2783 3451,2774 3470,2813 C3499,2876 3505,2921 3510,2995 C3529,2957 3521,2892 3514,2846 C3508,2806 3478,2763 3523,2717 C3555,2794 3569,2793 3576,2909 C3590,3164 3466,3300 3435,3433 Z" id="Shape" fill="#FFFFFF"></path>
            <path d="M4010,2357 C3960,2340 3887,2267 3850,2228 C3836,2212 3817,2195 3803,2178 C3773,2139 3748,2111 3720,2065 C3695,2022 3715,2006 3711,1896 C3760,1940 3847,2058 3885,2124 C3889,2130 3892,2137 3896,2143 C3896,2144 3897,2146 3898,2147 C3899,2148 3899,2149 3900,2150 C3909,2163 3904,2156 3908,2160 C3902,2116 3832,2000 3802,1956 C3788,1935 3771,1912 3762,1894 C3855,1930 3893,1964 3947,2064 C3997,2157 4022,2243 4010,2357 Z" id="Shape" fill="#FFFFFF"></path>
            <path d="M3979,1463 L3963,1443 C3964,1444 3966,1445 3966,1447 C3967,1449 3970,1452 3971,1453 C3980,1465 3972,1448 3979,1463 Z M4177,1683 L4164,1672 C4160,1668 4156,1664 4153,1660 C4057,1553 3862,1433 3715,1421 L3685,1345 C3756,1347 3847,1373 3906,1405 C3931,1419 3943,1436 3963,1443 C3937,1400 3850,1353 3786,1331 C3642,1282 3688,1338 3595,1251 L3585,1242 C3836,1228 4130,1429 4177,1683 Z" id="Shape" fill="#FFFFFF"></path>
            <path d="M3846,2392 C3850,2444 3856,2528 3828,2565 C3732,2517 3613,2341 3602,2209 C3633,2185 3642,2163 3666,2134 C3692,2207 3782,2423 3795,2469 L3702,2121 C3787,2247 3832,2220 3846,2392 Z" id="Shape" fill="#FFFFFF"></path>
            <path d="M3599,2564 L3582,2330 L3667,2481 C3673,2521 3650,2638 3636,2669 C3594,2639 3557,2579 3529,2520 C3501,2463 3469,2392 3464,2323 C3480,2308 3524,2281 3543,2270 C3558,2356 3571,2484 3599,2564 Z" id="Shape" fill="#FFFFFF"></path>
            <path d="M3254,2580 C3257,2615 3263,2646 3272,2666 C3271,2626 3271,2591 3272,2557 C3282,2544 3292,2531 3301,2518 L3333,2615 C3349,2656 3320,2731 3298,2758 C3262,2737 3231,2691 3206,2636 C3222,2619 3238,2600 3254,2580 Z" id="Shape" fill="#000000"></path>
            <path d="M3461,2733 C3407,2699 3358,2577 3333,2473 C3356,2439 3378,2404 3399,2368 C3412,2466 3413,2591 3449,2671 C3444,2589 3426,2491 3438,2411 C3465,2532 3519,2506 3487,2659 C3483,2682 3476,2716 3461,2733 Z" id="Shape" fill="#000000"></path>
            <path d="M3796,1228 C3728,1214 3674,1193 3590,1198 C3505,1204 3568,1217 3479,1196 C3451,1190 3423,1190 3394,1191 C3390,1187 3386,1183 3382,1180 C3434,1145 3540,1141 3602,1151 C3684,1164 3740,1192 3796,1228 Z" id="Shape" fill="#FFFFFF"></path>
            <path d="M653,1694 C605,2245 837,2657 1069,3023 C1117,3100 1206,3211 1312,3333 C1533,3257 1826,3211 2146,3211 C2494,3211 2809,3265 3036,3354 C3142,3234 3227,3127 3270,3057 C3406,2838 3561,2619 3648,2296 C3883,1417 3285,504 2579,808 C2479,851 2406,900 2341,968 C2264,1049 2270,1075 2208,1164 C2187,1194 2184,1195 2163,1219 C2036,835 1645,661 1324,748 C962,823 684,1329 653,1694 Z" id="Shape" fill="#FF0000"></path>
            <path d="M2696,1441 C2694,1428 2695,1413 2699,1396 C2703,1379 2709,1363 2716,1347 C2723,1332 2732,1318 2742,1307 C2752,1296 2762,1289 2773,1288 C2784,1286 2795,1285 2808,1283 C2820,1282 2832,1281 2842,1282 C2853,1282 2862,1285 2869,1290 C2876,1295 2881,1302 2882,1313 C2884,1324 2882,1336 2878,1348 C2873,1360 2868,1371 2861,1382 C2855,1393 2848,1401 2842,1409 C2835,1416 2830,1420 2828,1420 C2825,1420 2824,1416 2824,1407 C2824,1399 2824,1389 2825,1379 C2825,1369 2825,1359 2825,1350 C2825,1342 2824,1338 2822,1338 C2814,1339 2807,1343 2801,1349 C2794,1355 2789,1363 2784,1372 C2779,1381 2775,1391 2772,1401 C2769,1411 2768,1421 2768,1429 C2768,1438 2769,1445 2772,1450 C2774,1455 2778,1458 2784,1457 C2787,1457 2791,1456 2797,1455 C2804,1455 2811,1455 2819,1454 C2827,1454 2836,1455 2845,1455 C2854,1456 2862,1458 2870,1460 C2877,1464 2883,1467 2889,1473 C2894,1478 2897,1485 2898,1493 C2900,1502 2898,1511 2895,1522 C2891,1532 2887,1543 2880,1554 C2874,1564 2866,1575 2858,1586 C2849,1596 2840,1606 2832,1614 C2823,1622 2814,1629 2806,1635 C2797,1640 2791,1643 2785,1644 C2776,1645 2768,1644 2761,1642 C2753,1640 2747,1637 2742,1634 C2738,1630 2735,1627 2734,1624 C2733,1621 2734,1620 2738,1619 C2743,1618 2748,1615 2756,1610 C2762,1605 2769,1599 2777,1591 C2784,1583 2791,1575 2798,1565 C2806,1556 2812,1547 2818,1538 C2823,1530 2828,1521 2831,1515 C2834,1508 2836,1502 2835,1499 C2811,1505 2790,1506 2770,1505 C2762,1504 2754,1503 2746,1500 C2737,1498 2729,1494 2723,1489 C2716,1484 2710,1478 2705,1470 C2701,1462 2698,1452 2696,1441 Z" id="Shape" fill="#FFFFFF"></path>
            <path d="M2557,1148 C2554,1136 2557,1128 2564,1124 C2572,1120 2580,1118 2590,1120 C2600,1122 2610,1125 2619,1131 C2628,1138 2633,1146 2635,1154 C2636,1160 2637,1172 2638,1189 C2638,1206 2639,1226 2640,1250 C2640,1274 2641,1299 2642,1326 C2643,1354 2644,1380 2645,1407 C2645,1433 2647,1457 2649,1480 C2650,1503 2653,1521 2655,1534 C2659,1556 2664,1573 2669,1588 C2674,1603 2679,1615 2684,1625 C2689,1635 2693,1642 2697,1648 C2701,1654 2704,1658 2706,1661 C2707,1663 2708,1666 2707,1667 C2705,1668 2701,1669 2696,1670 C2688,1672 2678,1670 2666,1665 C2654,1660 2643,1651 2631,1639 C2619,1626 2609,1611 2599,1592 C2592,1580 2587,1566 2583,1551 C2578,1563 2572,1574 2564,1585 C2556,1597 2547,1607 2535,1616 C2523,1624 2509,1630 2494,1632 C2473,1634 2454,1633 2436,1627 C2418,1621 2403,1612 2390,1601 C2377,1589 2366,1577 2358,1562 C2350,1548 2345,1533 2343,1519 C2340,1499 2340,1481 2342,1463 C2344,1445 2347,1428 2352,1413 C2356,1398 2361,1384 2368,1372 C2373,1360 2379,1351 2384,1345 C2389,1339 2397,1335 2406,1331 C2415,1327 2425,1325 2435,1323 C2444,1322 2453,1321 2463,1321 C2472,1321 2479,1322 2484,1324 C2493,1327 2502,1334 2510,1345 C2517,1357 2522,1371 2524,1387 C2528,1418 2525,1441 2513,1458 C2502,1476 2487,1486 2468,1488 C2460,1489 2453,1489 2445,1489 C2437,1488 2430,1487 2423,1486 C2423,1501 2427,1514 2432,1528 C2438,1541 2444,1553 2452,1563 C2460,1573 2468,1581 2477,1586 C2486,1592 2495,1595 2503,1593 C2516,1592 2527,1588 2536,1580 C2546,1574 2554,1566 2560,1556 C2567,1547 2572,1537 2576,1526 L2577,1525 L2577,1525 C2574,1507 2571,1486 2569,1462 C2567,1439 2565,1413 2564,1387 C2563,1360 2562,1334 2562,1307 C2561,1281 2560,1256 2560,1234 C2560,1212 2559,1194 2559,1178 C2559,1162 2558,1152 2557,1148 Z M2467,1370 C2459,1371 2452,1375 2446,1381 C2440,1387 2436,1395 2432,1405 C2429,1414 2426,1425 2425,1437 C2423,1449 2422,1461 2422,1474 C2436,1477 2447,1477 2456,1473 C2464,1469 2472,1464 2476,1455 C2482,1448 2485,1438 2486,1428 C2488,1418 2488,1409 2487,1400 C2485,1391 2483,1384 2480,1378 C2476,1372 2472,1370 2467,1370 Z" id="Shape" fill="#FFFFFF"></path>
            <path d="M2370,1723 C2390,1729 2406,1738 2418,1751 C2430,1764 2439,1778 2445,1792 C2452,1807 2455,1821 2457,1834 C2458,1847 2457,1858 2455,1865 C2450,1880 2440,1895 2425,1913 C2409,1930 2390,1948 2367,1965 C2344,1983 2319,1999 2291,2015 C2264,2031 2235,2045 2207,2055 C2178,2066 2150,2073 2122,2077 C2095,2081 2070,2079 2047,2072 C2040,2070 2030,2065 2019,2058 C2008,2050 1996,2042 1985,2033 C1975,2023 1965,2012 1958,2001 C1951,1989 1949,1978 1951,1968 C1954,1956 1961,1946 1971,1936 C1981,1927 1993,1919 2008,1912 C2022,1905 2037,1898 2053,1893 C2069,1888 2083,1884 2096,1882 C2109,1879 2120,1878 2129,1878 C2137,1878 2141,1879 2140,1882 C2139,1884 2135,1887 2129,1890 C2122,1892 2114,1896 2104,1899 C2094,1902 2083,1906 2072,1911 C2060,1915 2049,1921 2038,1927 C2028,1933 2018,1940 2010,1948 C2002,1956 1995,1965 1992,1975 C1988,1987 1991,1995 2000,2000 C2009,2006 2023,2009 2041,2009 C2058,2010 2079,2008 2103,2004 C2127,2001 2152,1995 2179,1988 C2205,1980 2231,1971 2258,1960 C2284,1949 2308,1937 2330,1925 C2352,1912 2372,1898 2387,1882 C2403,1867 2414,1851 2419,1835 C2423,1824 2421,1813 2416,1803 C2410,1792 2398,1785 2381,1779 C2357,1772 2333,1769 2308,1771 C2283,1772 2259,1776 2237,1781 C2235,1785 2234,1787 2232,1787 C2229,1787 2227,1786 2225,1784 C2212,1787 2199,1791 2188,1796 C2176,1800 2166,1803 2157,1806 C2148,1809 2141,1812 2135,1814 C2129,1816 2125,1816 2123,1816 C2121,1815 2118,1813 2115,1810 C2111,1806 2108,1802 2105,1797 C2102,1791 2100,1785 2099,1779 C2098,1772 2099,1765 2101,1759 C2105,1748 2117,1738 2136,1732 C2155,1725 2177,1720 2203,1717 L2202,1714 C2202,1710 2201,1706 2201,1701 C2200,1697 2199,1692 2199,1687 L2199,1687 C2188,1688 2177,1687 2164,1683 C2151,1679 2139,1673 2128,1662 C2116,1652 2106,1638 2097,1621 C2088,1603 2081,1582 2078,1556 C2076,1543 2076,1528 2079,1512 C2081,1496 2085,1481 2089,1465 C2094,1450 2100,1434 2107,1419 C2113,1404 2120,1391 2128,1379 C2135,1368 2142,1359 2149,1352 C2156,1344 2161,1341 2167,1340 C2179,1338 2190,1339 2199,1342 C2207,1346 2214,1350 2219,1356 C2224,1362 2227,1368 2229,1373 C2231,1379 2232,1384 2233,1387 C2233,1389 2231,1393 2226,1398 C2221,1402 2215,1409 2207,1418 C2200,1426 2192,1437 2183,1448 C2175,1460 2167,1474 2161,1489 C2154,1505 2149,1522 2147,1541 C2144,1561 2144,1582 2147,1606 C2150,1630 2156,1646 2166,1654 C2176,1661 2186,1663 2197,1658 C2197,1650 2196,1642 2196,1633 C2196,1625 2196,1617 2196,1610 C2195,1604 2196,1599 2197,1595 C2197,1591 2198,1589 2199,1589 C2206,1588 2212,1591 2218,1598 C2223,1605 2228,1613 2233,1624 C2244,1606 2252,1583 2258,1556 C2264,1528 2265,1497 2260,1463 C2260,1459 2261,1457 2265,1455 C2270,1454 2274,1455 2280,1457 C2285,1459 2290,1462 2295,1468 C2300,1474 2303,1483 2304,1493 C2305,1502 2305,1513 2303,1528 C2301,1543 2298,1559 2293,1575 C2288,1592 2281,1609 2272,1624 C2264,1641 2254,1654 2242,1665 C2243,1671 2243,1679 2244,1688 C2244,1696 2244,1705 2244,1714 C2257,1713 2269,1713 2281,1713 C2294,1713 2305,1713 2316,1714 C2328,1715 2337,1716 2347,1718 C2356,1719 2364,1721 2370,1723 Z" id="Shape" fill="#FFFFFF"></path>
            <path d="M2039,1416 C2039,1421 2039,1428 2039,1437 C2038,1446 2038,1457 2037,1470 C2037,1482 2036,1495 2035,1509 C2035,1522 2034,1536 2033,1549 C2033,1562 2033,1574 2032,1585 C2032,1596 2033,1606 2034,1613 C2037,1635 2039,1652 2042,1663 C2045,1674 2048,1682 2050,1688 C2053,1694 2054,1698 2056,1700 C2057,1703 2058,1706 2059,1710 C2060,1714 2055,1717 2046,1719 C2037,1720 2026,1718 2014,1713 C2001,1708 1989,1698 1978,1685 C1967,1672 1959,1653 1956,1629 C1954,1613 1952,1596 1951,1578 C1950,1561 1950,1545 1949,1528 C1949,1511 1949,1495 1950,1481 C1951,1466 1951,1452 1952,1441 C1948,1453 1945,1466 1942,1482 C1939,1498 1936,1516 1932,1534 C1929,1553 1926,1572 1922,1591 C1919,1610 1915,1628 1912,1644 C1909,1661 1906,1676 1902,1689 C1899,1702 1896,1712 1892,1717 C1892,1720 1891,1722 1888,1724 L1886,1724 C1884,1725 1882,1726 1879,1726 C1865,1728 1852,1724 1841,1716 C1830,1707 1821,1696 1813,1682 C1805,1668 1799,1653 1793,1636 C1788,1619 1784,1603 1781,1588 C1778,1573 1776,1560 1775,1549 C1773,1539 1773,1533 1772,1531 C1772,1528 1772,1526 1770,1525 C1770,1525 1769,1524 1768,1523 C1767,1522 1765,1521 1765,1520 C1764,1520 1764,1518 1763,1515 C1763,1512 1768,1510 1776,1507 C1785,1504 1795,1503 1807,1502 C1818,1502 1828,1503 1838,1506 C1848,1510 1853,1516 1854,1525 C1855,1528 1856,1534 1857,1542 C1857,1551 1859,1560 1859,1569 C1860,1579 1861,1589 1863,1598 C1863,1608 1864,1615 1865,1619 C1866,1627 1867,1634 1869,1640 C1870,1647 1872,1653 1873,1659 C1875,1646 1878,1631 1881,1615 C1885,1599 1888,1581 1892,1563 C1896,1545 1900,1527 1905,1510 C1910,1492 1915,1475 1921,1460 C1926,1444 1931,1431 1938,1420 C1944,1408 1950,1401 1957,1396 C1958,1395 1959,1394 1962,1393 C1963,1392 1964,1392 1965,1391 C1966,1391 1967,1391 1968,1391 C1970,1391 1972,1390 1974,1390 C1976,1390 1978,1390 1979,1390 C1988,1389 1995,1389 1997,1391 C2007,1392 2016,1395 2025,1399 C2033,1403 2038,1409 2039,1416 Z" id="Shape" fill="#FFFFFF"></path>
            <path d="M1603,1431 C1600,1410 1597,1388 1594,1367 C1592,1346 1589,1326 1587,1308 C1584,1326 1580,1349 1574,1376 C1569,1403 1562,1433 1555,1465 C1565,1458 1574,1452 1582,1446 C1590,1440 1597,1435 1603,1431 Z M1325,1837 C1337,1837 1349,1829 1361,1814 C1372,1799 1384,1779 1396,1754 C1408,1730 1420,1701 1430,1669 C1442,1637 1453,1604 1463,1569 C1442,1587 1421,1606 1400,1626 C1380,1646 1362,1666 1345,1685 C1329,1704 1316,1723 1307,1741 C1297,1759 1292,1775 1292,1789 C1292,1798 1294,1806 1296,1813 C1298,1819 1302,1825 1306,1830 C1311,1835 1317,1837 1325,1837 Z M1727,1613 C1734,1640 1741,1662 1749,1680 C1757,1699 1764,1714 1771,1726 C1778,1738 1785,1747 1790,1754 C1795,1761 1799,1766 1802,1770 C1804,1774 1804,1776 1803,1778 C1801,1779 1798,1781 1791,1782 C1782,1785 1770,1783 1756,1777 C1743,1771 1729,1761 1714,1747 C1699,1733 1684,1714 1671,1691 C1657,1667 1645,1639 1636,1606 C1630,1584 1624,1560 1620,1534 C1615,1508 1610,1481 1606,1454 C1600,1459 1591,1465 1581,1473 C1571,1481 1559,1490 1547,1500 C1540,1527 1532,1556 1525,1585 C1517,1614 1509,1642 1499,1669 C1490,1697 1480,1722 1471,1746 C1461,1770 1451,1791 1440,1809 C1430,1827 1419,1841 1408,1851 C1396,1861 1385,1867 1374,1867 C1354,1867 1338,1865 1325,1862 C1313,1858 1303,1852 1295,1845 C1288,1838 1283,1829 1280,1820 C1278,1810 1276,1799 1276,1788 C1275,1767 1281,1746 1293,1724 C1305,1701 1320,1678 1339,1655 C1358,1632 1380,1610 1403,1588 C1427,1566 1451,1545 1475,1526 C1481,1503 1487,1481 1493,1458 C1499,1436 1504,1415 1509,1394 C1514,1374 1518,1355 1521,1337 C1525,1320 1529,1305 1531,1291 C1506,1304 1482,1318 1458,1332 C1434,1347 1412,1362 1393,1377 C1374,1392 1358,1408 1346,1423 C1334,1439 1329,1454 1329,1468 C1329,1474 1327,1477 1323,1477 C1318,1478 1314,1477 1309,1473 C1304,1470 1299,1466 1295,1459 C1291,1453 1288,1445 1288,1436 C1288,1418 1293,1401 1304,1384 C1316,1368 1331,1352 1349,1337 C1367,1323 1386,1309 1409,1296 C1431,1283 1453,1272 1474,1261 C1495,1250 1515,1240 1533,1231 C1550,1223 1563,1215 1573,1208 C1571,1196 1575,1187 1583,1181 C1592,1176 1601,1173 1613,1174 C1624,1174 1634,1177 1645,1184 C1656,1190 1662,1199 1666,1209 C1667,1217 1670,1230 1673,1248 C1675,1266 1678,1287 1681,1311 C1683,1335 1687,1361 1690,1389 C1693,1417 1697,1445 1701,1472 C1705,1500 1709,1526 1713,1550 C1717,1575 1722,1596 1727,1613 Z" id="Shape" fill="#FFFFFF"></path>
            <path d="M2198,2237 C2205,2236 2212,2237 2218,2239 C2225,2242 2231,2247 2236,2254 C2241,2261 2246,2270 2251,2281 C2255,2293 2258,2308 2260,2325 C2263,2342 2264,2360 2263,2378 C2262,2396 2259,2413 2254,2428 C2249,2443 2242,2456 2233,2466 C2223,2476 2210,2483 2195,2485 C2181,2486 2169,2484 2159,2478 C2149,2473 2141,2465 2135,2455 C2128,2445 2123,2434 2119,2422 C2115,2410 2113,2398 2111,2386 C2110,2376 2109,2365 2109,2353 C2108,2341 2109,2331 2111,2321 C2113,2311 2116,2302 2121,2294 C2126,2287 2132,2281 2140,2278 C2142,2270 2145,2264 2149,2259 C2153,2254 2158,2249 2163,2246 C2169,2243 2175,2241 2181,2240 C2187,2239 2192,2238 2198,2237 Z M2215,2458 C2220,2457 2224,2452 2228,2442 C2231,2432 2234,2420 2235,2405 C2237,2390 2237,2374 2237,2358 C2236,2341 2235,2326 2232,2311 C2229,2297 2225,2286 2219,2277 C2214,2268 2207,2264 2198,2265 C2195,2265 2192,2269 2192,2274 C2191,2279 2190,2285 2190,2292 C2189,2299 2189,2306 2188,2313 C2187,2321 2185,2326 2181,2330 C2183,2344 2184,2359 2185,2374 C2187,2389 2188,2404 2190,2416 C2192,2429 2195,2439 2199,2447 C2202,2455 2208,2459 2215,2458 Z M2463,2109 C2473,2107 2480,2108 2487,2112 C2494,2115 2499,2119 2502,2124 C2506,2128 2508,2132 2508,2136 C2508,2140 2508,2143 2505,2143 C2503,2143 2501,2143 2499,2143 C2497,2143 2495,2143 2493,2142 C2490,2142 2486,2142 2482,2142 C2478,2142 2472,2142 2464,2143 C2450,2145 2433,2148 2415,2154 C2397,2159 2378,2165 2359,2170 C2359,2184 2360,2198 2361,2214 C2361,2231 2362,2248 2364,2265 C2365,2283 2366,2302 2368,2320 C2370,2339 2372,2357 2374,2374 C2378,2400 2382,2422 2386,2440 C2391,2458 2395,2474 2399,2486 C2403,2498 2407,2507 2410,2513 C2413,2520 2415,2525 2417,2529 C2419,2532 2419,2534 2418,2535 C2417,2536 2415,2537 2411,2537 C2399,2539 2388,2535 2377,2525 C2366,2516 2356,2503 2347,2487 C2338,2470 2330,2452 2323,2431 C2317,2411 2312,2391 2309,2370 C2307,2351 2305,2333 2304,2316 C2302,2300 2301,2284 2300,2269 C2299,2255 2298,2240 2298,2227 C2298,2214 2297,2200 2296,2188 C2287,2191 2278,2193 2269,2194 C2260,2196 2251,2198 2243,2199 C2234,2200 2227,2199 2220,2197 C2214,2194 2209,2191 2205,2187 C2201,2182 2197,2178 2195,2172 C2193,2168 2191,2163 2191,2159 C2190,2156 2191,2154 2193,2154 C2195,2153 2198,2153 2202,2154 C2206,2154 2211,2154 2218,2155 C2224,2155 2233,2155 2242,2154 C2250,2153 2259,2151 2268,2150 C2277,2148 2286,2147 2295,2145 C2295,2121 2296,2099 2299,2080 C2301,2062 2305,2046 2312,2033 C2317,2020 2326,2010 2336,2003 C2346,1995 2360,1990 2375,1988 C2384,1987 2392,1988 2400,1991 C2408,1994 2414,1997 2420,2001 C2424,2005 2428,2009 2429,2012 C2431,2016 2430,2018 2426,2019 C2414,2020 2402,2023 2394,2028 C2386,2033 2378,2040 2373,2049 C2368,2058 2364,2069 2362,2082 C2359,2096 2358,2112 2358,2131 C2380,2126 2401,2122 2420,2117 C2439,2113 2453,2110 2463,2109 Z" id="Shape" fill="#FFFFFF"></path>
            <path d="M2967,2493 C2974,2492 2977,2493 2977,2496 C2976,2498 2973,2501 2967,2504 C2958,2508 2947,2512 2932,2517 C2918,2522 2902,2527 2885,2531 C2868,2536 2849,2541 2830,2546 C2811,2550 2792,2555 2773,2559 C2772,2575 2771,2592 2771,2609 C2770,2627 2770,2644 2770,2660 C2770,2677 2769,2692 2770,2707 C2770,2722 2771,2735 2773,2746 C2775,2766 2779,2783 2783,2797 C2786,2811 2790,2823 2794,2832 C2798,2842 2802,2849 2805,2855 C2808,2860 2810,2864 2812,2867 C2813,2870 2813,2872 2812,2873 C2811,2874 2808,2875 2803,2875 C2796,2876 2788,2874 2779,2869 C2770,2863 2761,2854 2752,2842 C2743,2830 2735,2815 2728,2796 C2720,2778 2715,2757 2712,2732 C2709,2709 2707,2683 2707,2654 C2707,2626 2707,2597 2708,2570 C2698,2572 2687,2573 2678,2573 C2668,2574 2659,2575 2651,2575 C2639,2575 2627,2574 2617,2572 C2607,2570 2597,2568 2587,2565 C2578,2562 2570,2559 2562,2555 C2554,2552 2547,2549 2541,2545 C2535,2543 2533,2540 2534,2537 C2535,2535 2538,2534 2541,2534 C2565,2536 2592,2536 2621,2534 C2650,2533 2680,2531 2710,2528 L2711,2514 C2712,2496 2713,2480 2714,2467 C2715,2454 2715,2444 2714,2439 C2713,2429 2715,2421 2720,2418 C2726,2415 2733,2414 2740,2416 C2748,2418 2755,2422 2762,2428 C2769,2435 2773,2442 2774,2451 C2775,2455 2775,2462 2775,2472 C2775,2481 2775,2492 2775,2505 L2774,2521 C2795,2518 2814,2515 2833,2512 C2852,2509 2870,2507 2887,2504 C2904,2502 2919,2500 2933,2497 C2947,2495 2958,2494 2967,2493 Z" id="Shape" fill="#FFFFFF"></path>
            <path d="M2606,2598 C2613,2597 2619,2597 2626,2596 C2633,2596 2639,2596 2645,2597 C2650,2599 2656,2602 2660,2606 C2664,2611 2666,2618 2668,2627 C2669,2637 2670,2646 2670,2655 C2669,2664 2669,2672 2667,2679 C2665,2686 2663,2693 2659,2697 C2655,2702 2650,2705 2644,2706 C2632,2707 2622,2707 2614,2704 C2605,2701 2601,2697 2600,2692 C2600,2690 2600,2685 2600,2680 C2600,2674 2600,2669 2600,2663 C2601,2657 2601,2650 2601,2642 C2594,2664 2587,2685 2582,2706 C2580,2715 2577,2724 2575,2734 C2573,2744 2571,2754 2570,2764 C2568,2774 2567,2783 2566,2792 C2565,2802 2565,2810 2566,2819 C2568,2827 2571,2833 2573,2839 C2575,2844 2577,2849 2579,2852 C2581,2856 2582,2858 2583,2860 C2584,2863 2585,2865 2585,2867 C2585,2869 2584,2871 2580,2874 C2577,2876 2572,2877 2566,2877 C2560,2877 2553,2875 2546,2872 C2539,2868 2532,2861 2525,2850 C2518,2842 2512,2830 2507,2815 C2504,2824 2501,2833 2498,2842 C2494,2856 2488,2867 2483,2878 C2477,2888 2471,2894 2465,2898 C2463,2899 2461,2899 2457,2900 C2450,2901 2443,2899 2437,2896 C2431,2892 2425,2887 2420,2881 C2415,2875 2410,2868 2406,2861 C2403,2854 2399,2847 2396,2840 C2394,2834 2392,2829 2390,2825 C2388,2821 2387,2819 2387,2819 C2386,2819 2386,2821 2385,2824 C2384,2828 2382,2832 2381,2837 C2379,2843 2377,2849 2374,2855 C2372,2862 2369,2867 2366,2873 C2362,2879 2359,2884 2354,2887 C2349,2892 2343,2894 2337,2895 C2328,2896 2318,2896 2310,2893 C2302,2891 2294,2887 2287,2881 C2280,2875 2273,2867 2268,2856 C2267,2853 2266,2850 2265,2847 C2262,2853 2258,2859 2254,2865 C2248,2874 2240,2882 2231,2889 C2222,2896 2211,2900 2199,2901 C2182,2904 2167,2902 2154,2897 C2139,2893 2127,2886 2117,2877 C2107,2868 2098,2858 2092,2847 C2086,2835 2082,2824 2080,2812 C2078,2797 2078,2783 2079,2769 C2081,2755 2083,2741 2087,2729 C2088,2725 2090,2720 2091,2716 C2070,2713 2048,2711 2025,2713 C2026,2734 2028,2756 2030,2779 C2032,2802 2035,2825 2038,2847 C2040,2864 2043,2879 2047,2890 C2051,2901 2054,2910 2057,2917 C2059,2923 2060,2928 2060,2931 C2060,2935 2056,2937 2050,2938 C2039,2939 2029,2934 2020,2921 C2011,2908 2003,2891 1996,2870 C1989,2849 1983,2826 1978,2799 C1973,2772 1969,2746 1966,2720 C1958,2721 1949,2723 1941,2725 C1933,2727 1925,2729 1917,2732 C1920,2755 1922,2779 1923,2803 C1924,2827 1924,2849 1924,2869 C1923,2894 1919,2915 1912,2934 C1905,2954 1897,2969 1888,2982 C1878,2995 1869,3004 1859,3010 C1849,3017 1840,3019 1831,3019 C1826,3019 1823,3018 1822,3017 C1821,3016 1821,3014 1823,3011 C1825,3008 1827,3004 1831,2998 C1834,2992 1838,2984 1842,2975 C1845,2965 1848,2953 1852,2938 C1855,2924 1857,2907 1858,2886 C1859,2870 1858,2850 1857,2827 C1855,2804 1853,2780 1851,2756 C1832,2764 1816,2773 1801,2782 C1786,2791 1774,2800 1764,2809 C1761,2810 1757,2809 1753,2805 C1749,2802 1746,2798 1742,2792 C1739,2787 1737,2782 1734,2776 C1732,2771 1732,2768 1733,2766 C1733,2764 1736,2760 1742,2757 C1748,2753 1756,2748 1765,2743 C1775,2739 1787,2734 1800,2728 C1814,2723 1829,2718 1846,2714 C1845,2701 1844,2689 1842,2677 C1841,2665 1839,2655 1839,2645 C1838,2637 1836,2629 1836,2619 C1834,2610 1833,2601 1831,2591 C1829,2581 1827,2572 1824,2562 C1821,2553 1818,2545 1814,2538 C1810,2531 1805,2525 1799,2521 C1793,2518 1787,2516 1779,2517 C1769,2518 1758,2522 1749,2528 C1739,2534 1730,2541 1722,2550 C1714,2559 1707,2568 1700,2579 C1694,2589 1688,2600 1684,2610 C1680,2621 1677,2631 1675,2640 C1673,2649 1673,2657 1673,2663 C1674,2668 1674,2673 1672,2676 C1671,2679 1670,2681 1667,2682 C1666,2682 1663,2681 1661,2679 C1659,2677 1658,2672 1657,2666 C1656,2658 1656,2648 1658,2636 C1660,2625 1664,2613 1668,2601 C1673,2589 1680,2577 1687,2566 C1695,2554 1704,2544 1714,2534 C1723,2525 1734,2516 1746,2510 C1758,2503 1772,2499 1785,2497 C1800,2495 1814,2498 1828,2505 C1841,2512 1853,2523 1864,2540 C1876,2556 1885,2576 1893,2602 C1902,2627 1908,2657 1913,2692 L1914,2699 C1922,2697 1930,2696 1938,2695 C1946,2695 1954,2694 1962,2694 C1961,2677 1959,2662 1958,2647 C1956,2632 1955,2619 1954,2607 C1953,2595 1952,2585 1951,2578 C1951,2570 1950,2564 1950,2562 C1949,2559 1949,2556 1949,2554 C1949,2552 1950,2550 1951,2548 C1952,2546 1954,2544 1957,2543 C1960,2541 1964,2540 1969,2540 C1974,2539 1980,2540 1985,2542 C1991,2544 1995,2547 2000,2550 C2004,2554 2008,2558 2012,2562 C2015,2567 2017,2571 2017,2575 C2018,2577 2018,2581 2018,2587 C2019,2594 2019,2602 2019,2613 C2020,2624 2020,2635 2021,2649 C2022,2663 2023,2678 2023,2693 C2044,2694 2065,2697 2087,2702 C2090,2702 2093,2703 2096,2705 C2097,2702 2098,2700 2099,2697 C2104,2688 2108,2681 2112,2676 C2117,2671 2122,2668 2130,2665 C2137,2662 2144,2660 2152,2659 C2160,2658 2167,2657 2174,2657 C2181,2657 2187,2658 2191,2659 C2198,2662 2205,2667 2211,2676 C2217,2685 2221,2696 2223,2709 C2226,2733 2223,2751 2214,2765 C2206,2779 2194,2787 2178,2788 C2172,2789 2167,2789 2160,2789 C2154,2788 2148,2788 2143,2787 C2143,2798 2146,2809 2150,2820 C2155,2830 2160,2839 2166,2847 C2172,2855 2178,2861 2186,2866 C2193,2870 2200,2872 2206,2871 C2216,2870 2225,2867 2232,2861 C2240,2856 2246,2850 2251,2842 C2254,2838 2257,2833 2260,2828 C2259,2824 2258,2820 2258,2816 C2256,2801 2256,2785 2258,2766 C2259,2747 2263,2729 2270,2712 C2276,2695 2285,2681 2297,2668 C2308,2656 2323,2649 2340,2646 C2353,2645 2364,2644 2374,2643 C2384,2643 2393,2644 2401,2647 C2409,2650 2416,2656 2421,2665 C2427,2673 2430,2686 2432,2702 C2433,2704 2432,2705 2431,2707 C2429,2708 2427,2709 2425,2710 C2423,2711 2421,2711 2419,2711 C2417,2710 2416,2709 2416,2706 C2415,2704 2415,2700 2414,2695 C2412,2690 2410,2684 2408,2679 C2406,2674 2403,2670 2400,2666 C2397,2662 2393,2661 2388,2662 C2377,2663 2366,2669 2357,2679 C2348,2690 2340,2704 2334,2720 C2329,2737 2324,2755 2322,2775 C2320,2796 2321,2816 2323,2837 C2324,2841 2325,2846 2326,2851 C2327,2856 2328,2861 2330,2865 C2332,2869 2334,2873 2336,2876 C2339,2879 2342,2880 2346,2879 C2348,2879 2350,2876 2353,2871 C2355,2866 2358,2860 2360,2852 C2362,2843 2364,2835 2366,2825 C2368,2816 2370,2806 2371,2797 C2372,2789 2373,2780 2373,2772 C2374,2765 2374,2759 2373,2755 C2373,2753 2373,2751 2373,2747 C2373,2744 2373,2741 2375,2738 C2376,2736 2378,2733 2382,2731 C2386,2729 2391,2727 2398,2726 C2413,2724 2424,2725 2430,2729 C2437,2734 2441,2738 2442,2743 L2443,2751 C2444,2758 2446,2769 2448,2782 C2449,2795 2452,2808 2454,2821 C2457,2834 2459,2845 2463,2854 C2466,2863 2469,2867 2473,2867 C2474,2867 2477,2863 2480,2855 C2482,2848 2485,2838 2489,2827 C2492,2816 2495,2803 2498,2789 L2498,2789 C2494,2774 2491,2756 2488,2736 C2487,2725 2486,2712 2484,2699 C2483,2685 2483,2672 2483,2661 C2483,2649 2484,2640 2486,2632 C2488,2624 2491,2620 2495,2619 C2511,2617 2523,2619 2532,2625 C2540,2631 2545,2639 2546,2648 C2547,2653 2547,2658 2547,2663 C2546,2669 2546,2675 2546,2681 C2545,2687 2545,2694 2545,2702 C2545,2709 2546,2717 2547,2725 C2549,2742 2552,2757 2554,2769 C2555,2759 2556,2748 2558,2736 C2560,2723 2562,2711 2565,2698 C2568,2686 2570,2674 2574,2662 C2577,2650 2580,2639 2584,2630 C2588,2621 2591,2613 2595,2607 C2598,2602 2602,2599 2606,2598 Z M2172,2694 C2166,2695 2160,2698 2156,2703 C2151,2707 2148,2714 2145,2721 C2142,2728 2140,2737 2139,2746 C2137,2756 2137,2765 2137,2776 C2147,2778 2156,2778 2163,2775 C2170,2772 2176,2768 2180,2761 C2184,2755 2186,2748 2187,2740 C2189,2732 2188,2724 2188,2717 C2187,2711 2185,2705 2182,2700 C2179,2695 2176,2694 2172,2694 Z" id="Shape" fill="#FFFFFF"></path>
        </g>
    </g>
</svg>