<?xml version="1.0" encoding="UTF-8"?>
<svg width="1624px" height="2196px" viewBox="0 0 1624 2196" version="1.1" xmlns="http://www.w3.org/2000/svg" xmlns:xlink="http://www.w3.org/1999/xlink">
    <!-- Generator: Sketch 46.2 (44496) - http://www.bohemiancoding.com/sketch -->
    <title>Group</title>
    <desc>Created with Sketch.</desc>
    <defs></defs>
    <g id="V1" stroke="none" stroke-width="1" fill="none" fill-rule="evenodd">
        <g id="Group" fill-rule="nonzero" fill="#FFFFFF">
            <g id="Angels">
                <path d="M1421,322 C1419,309 1420,294 1424,277 C1428,260 1434,244 1441,228 C1448,213 1457,199 1467,188 C1477,177 1487,170 1498,169 C1509,167 1520,166 1533,164 C1545,163 1557,162 1567,163 C1578,163 1587,166 1594,171 C1601,176 1606,183 1607,194 C1609,205 1607,217 1603,229 C1598,241 1593,252 1586,263 C1580,274 1573,282 1567,290 C1560,297 1555,301 1553,301 C1550,301 1549,297 1549,288 C1549,280 1549,270 1550,260 C1550,250 1550,240 1550,231 C1550,223 1549,219 1547,219 C1539,220 1532,224 1526,230 C1519,236 1514,244 1509,253 C1504,262 1500,272 1497,282 C1494,292 1493,302 1493,310 C1493,319 1494,326 1497,331 C1499,336 1503,339 1509,338 C1512,338 1516,337 1522,336 C1529,336 1536,336 1544,335 C1552,335 1561,336 1570,336 C1579,337 1587,339 1595,341 C1602,345 1608,348 1614,354 C1619,359 1622,366 1623,374 C1625,383 1623,392 1620,403 C1616,413 1612,424 1605,435 C1599,445 1591,456 1583,467 C1574,477 1565,487 1557,495 C1548,503 1539,510 1531,516 C1522,521 1516,524 1510,525 C1501,526 1493,525 1486,523 C1478,521 1472,518 1467,515 C1463,511 1460,508 1459,505 C1458,502 1459,501 1463,500 C1468,499 1473,496 1481,491 C1487,486 1494,480 1502,472 C1509,464 1516,456 1523,446 C1531,437 1537,428 1543,419 C1548,411 1553,402 1556,396 C1559,389 1561,383 1560,380 C1536,386 1515,387 1495,386 C1487,385 1479,384 1471,381 C1462,379 1454,375 1448,370 C1441,365 1435,359 1430,351 C1426,343 1423,333 1421,322 Z" id="Shape"></path>
                <path d="M1282,29 C1279,17 1282,9 1289,5 C1297,1 1305,-1 1315,1 C1325,3 1335,6 1344,12 C1353,19 1358,27 1360,35 C1361,41 1362,53 1363,70 C1363,87 1364,107 1365,131 C1365,155 1366,180 1367,207 C1368,235 1369,261 1370,288 C1370,314 1372,338 1374,361 C1375,384 1378,402 1380,415 C1384,437 1389,454 1394,469 C1399,484 1404,496 1409,506 C1414,516 1418,523 1422,529 C1426,535 1429,539 1431,542 C1432,544 1433,547 1432,548 C1430,549 1426,550 1421,551 C1413,553 1403,551 1391,546 C1379,541 1368,532 1356,520 C1344,507 1334,492 1324,473 C1317,461 1312,447 1308,432 C1303,444 1297,455 1289,466 C1281,478 1272,488 1260,497 C1248,505 1234,511 1219,513 C1198,515 1179,514 1161,508 C1143,502 1128,493 1115,482 C1102,470 1091,458 1083,443 C1075,429 1070,414 1068,400 C1065,380 1065,362 1067,344 C1069,326 1072,309 1077,294 C1081,279 1086,265 1093,253 C1098,241 1104,232 1109,226 C1114,220 1122,216 1131,212 C1140,208 1150,206 1160,204 C1169,203 1178,202 1188,202 C1197,202 1204,203 1209,205 C1218,208 1227,215 1235,226 C1242,238 1247,252 1249,268 C1253,299 1250,322 1238,339 C1227,357 1212,367 1193,369 C1185,370 1178,370 1170,370 C1162,369 1155,368 1148,367 C1148,382 1152,395 1157,409 C1163,422 1169,434 1177,444 C1185,454 1193,462 1202,467 C1211,473 1220,476 1228,474 C1241,473 1252,469 1261,461 C1271,455 1279,447 1285,437 C1292,428 1297,418 1301,407 L1302,406 L1302,406 C1299,388 1296,367 1294,343 C1292,320 1290,294 1289,268 C1288,241 1287,215 1287,188 C1286,162 1285,137 1285,115 C1285,93 1284,75 1284,59 C1284,43 1283,33 1282,29 Z M1192,251 C1184,252 1177,256 1171,262 C1165,268 1161,276 1157,286 C1154,295 1151,306 1150,318 C1148,330 1147,342 1147,355 C1161,358 1172,358 1181,354 C1189,350 1197,345 1201,336 C1207,329 1210,319 1211,309 C1213,299 1213,290 1212,281 C1210,272 1208,265 1205,259 C1201,253 1197,251 1192,251 Z" id="Shape"></path>
                <path d="M1095,604 C1115,610 1131,619 1143,632 C1155,645 1164,659 1170,673 C1177,688 1180,702 1182,715 C1183,728 1182,739 1180,746 C1175,761 1165,776 1150,794 C1134,811 1115,829 1092,846 C1069,864 1044,880 1016,896 C989,912 960,926 932,936 C903,947 875,954 847,958 C820,962 795,960 772,953 C765,951 755,946 744,939 C733,931 721,923 710,914 C700,904 690,893 683,882 C676,870 674,859 676,849 C679,837 686,827 696,817 C706,808 718,800 733,793 C747,786 762,779 778,774 C794,769 808,765 821,763 C834,760 845,759 854,759 C862,759 866,760 865,763 C864,765 860,768 854,771 C847,773 839,777 829,780 C819,783 808,787 797,792 C785,796 774,802 763,808 C753,814 743,821 735,829 C727,837 720,846 717,856 C713,868 716,876 725,881 C734,887 748,890 766,890 C783,891 804,889 828,885 C852,882 877,876 904,869 C930,861 956,852 983,841 C1009,830 1033,818 1055,806 C1077,793 1097,779 1112,763 C1128,748 1139,732 1144,716 C1148,705 1146,694 1141,684 C1135,673 1123,666 1106,660 C1082,653 1058,650 1033,652 C1008,653 984,657 962,662 C960,666 959,668 957,668 C954,668 952,667 950,665 C937,668 924,672 913,677 C901,681 891,684 882,687 C873,690 866,693 860,695 C854,697 850,697 848,697 C846,696 843,694 840,691 C836,687 833,683 830,678 C827,672 825,666 824,660 C823,653 824,646 826,640 C830,629 842,619 861,613 C880,606 902,601 928,598 L927,595 C927,591 926,587 926,582 C925,578 924,573 924,568 L924,568 C913,569 902,568 889,564 C876,560 864,554 853,543 C841,533 831,519 822,502 C813,484 806,463 803,437 C801,424 801,409 804,393 C806,377 810,362 814,346 C819,331 825,315 832,300 C838,285 845,272 853,260 C860,249 867,240 874,233 C881,225 886,222 892,221 C904,219 915,220 924,223 C932,227 939,231 944,237 C949,243 952,249 954,254 C956,260 957,265 958,268 C958,270 956,274 951,279 C946,283 940,290 932,299 C925,307 917,318 908,329 C900,341 892,355 886,370 C879,386 874,403 872,422 C869,442 869,463 872,487 C875,511 881,527 891,535 C901,542 911,544 922,539 C922,531 921,523 921,514 C921,506 921,498 921,491 C920,485 921,480 922,476 C922,472 923,470 924,470 C931,469 937,472 943,479 C948,486 953,494 958,505 C969,487 977,464 983,437 C989,409 990,378 985,344 C985,340 986,338 990,336 C995,335 999,336 1005,338 C1010,340 1015,343 1020,349 C1025,355 1028,364 1029,374 C1030,383 1030,394 1028,409 C1026,424 1023,440 1018,456 C1013,473 1006,490 997,505 C989,522 979,535 967,546 C968,552 968,560 969,569 C969,577 969,586 969,595 C982,594 994,594 1006,594 C1019,594 1030,594 1041,595 C1053,596 1062,597 1072,599 C1081,600 1089,602 1095,604 Z" id="Shape"></path>
                <path d="M764,297 C764,302 764,309 764,318 C763,327 763,338 762,351 C762,363 761,376 760,390 C760,403 759,417 758,430 C758,443 758,455 757,466 C757,477 758,487 759,494 C762,516 764,533 767,544 C770,555 773,563 775,569 C778,575 779,579 781,581 C782,584 783,587 784,591 C785,595 780,598 771,600 C762,601 751,599 739,594 C726,589 714,579 703,566 C692,553 684,534 681,510 C679,494 677,477 676,459 C675,442 675,426 674,409 C674,392 674,376 675,362 C676,347 676,333 677,322 C673,334 670,347 667,363 C664,379 661,397 657,415 C654,434 651,453 647,472 C644,491 640,509 637,525 C634,542 631,557 627,570 C624,583 621,593 617,598 C617,601 616,603 613,605 L611,605 C609,606 607,607 604,607 C590,609 577,605 566,597 C555,588 546,577 538,563 C530,549 524,534 518,517 C513,500 509,484 506,469 C503,454 501,441 500,430 C498,420 498,414 497,412 C497,409 497,407 495,406 C495,406 494,405 493,404 C492,403 490,402 490,401 C489,401 489,399 488,396 C488,393 493,391 501,388 C510,385 520,384 532,383 C543,383 553,384 563,387 C573,391 578,397 579,406 C580,409 581,415 582,423 C582,432 584,441 584,450 C585,460 586,470 588,479 C588,489 589,496 590,500 C591,508 592,515 594,521 C595,528 597,534 598,540 C600,527 603,512 606,496 C610,480 613,462 617,444 C621,426 625,408 630,391 C635,373 640,356 646,341 C651,325 656,312 663,301 C669,289 675,282 682,277 C683,276 684,275 687,274 C688,273 689,273 690,272 C691,272 692,272 693,272 C695,272 697,271 699,271 C701,271 703,271 704,271 C713,270 720,270 722,272 C732,273 741,276 750,280 C758,284 763,290 764,297 Z" id="Shape"></path>
                <path d="M328,312 C325,291 322,269 319,248 C317,227 314,207 312,189 C309,207 305,230 299,257 C294,284 287,314 280,346 C290,339 299,333 307,327 C315,321 322,316 328,312 Z M50,718 C62,718 74,710 86,695 C97,680 109,660 121,635 C133,611 145,582 155,550 C167,518 178,485 188,450 C167,468 146,487 125,507 C105,527 87,547 70,566 C54,585 41,604 32,622 C22,640 17,656 17,670 C17,679 19,687 21,694 C23,700 27,706 31,711 C36,716 42,718 50,718 Z M452,494 C459,521 466,543 474,561 C482,580 489,595 496,607 C503,619 510,628 515,635 C520,642 524,647 527,651 C529,655 529,657 528,659 C526,660 523,662 516,663 C507,666 495,664 481,658 C468,652 454,642 439,628 C424,614 409,595 396,572 C382,548 370,520 361,487 C355,465 349,441 345,415 C340,389 335,362 331,335 C325,340 316,346 306,354 C296,362 284,371 272,381 C265,408 257,437 250,466 C242,495 234,523 224,550 C215,578 205,603 196,627 C186,651 176,672 165,690 C155,708 144,722 133,732 C121,742 110,748 99,748 C79,748 63,746 50,743 C38,739 28,733 20,726 C13,719 8,710 5,701 C3,691 1,680 1,669 C-1.83186799e-14,648 6,627 18,605 C30,582 45,559 64,536 C83,513 105,491 128,469 C152,447 176,426 200,407 C206,384 212,362 218,339 C224,317 229,296 234,275 C239,255 243,236 246,218 C250,201 254,186 256,172 C231,185 207,199 183,213 C159,228 137,243 118,258 C99,273 83,289 71,304 C59,320 54,335 54,349 C54,355 52,358 48,358 C43,359 39,358 34,354 C29,351 24,347 20,340 C16,334 13,326 13,317 C13,299 18,282 29,265 C41,249 56,233 74,218 C92,204 111,190 134,177 C156,164 178,153 199,142 C220,131 240,121 258,112 C275,104 288,96 298,89 C296,77 300,68 308,62 C317,57 326,54 338,55 C349,55 359,58 370,65 C381,71 387,80 391,90 C392,98 395,111 398,129 C400,147 403,168 406,192 C408,216 412,242 415,270 C418,298 422,326 426,353 C430,381 434,407 438,431 C442,456 447,477 452,494 Z" id="Shape"></path>
            </g>
            <path d="M853.392305,1290.375 C860.392305,1289.375 867.392305,1290.375 873.392305,1292.375 C880.392305,1295.375 886.392305,1300.375 891.392305,1307.375 C896.392305,1314.375 901.392305,1323.375 906.392305,1334.375 C910.392305,1346.375 913.392305,1361.375 915.392305,1378.375 C918.392305,1395.375 919.392305,1413.375 918.392305,1431.375 C917.392305,1449.375 914.392305,1466.375 909.392305,1481.375 C904.392305,1496.375 897.392305,1509.375 888.392305,1519.375 C878.392305,1529.375 865.392305,1536.375 850.392305,1538.375 C836.392305,1539.375 824.392305,1537.375 814.392305,1531.375 C804.392305,1526.375 796.392305,1518.375 790.392305,1508.375 C783.392305,1498.375 778.392305,1487.375 774.392305,1475.375 C770.392305,1463.375 768.392305,1451.375 766.392305,1439.375 C765.392305,1429.375 764.392305,1418.375 764.392305,1406.375 C763.392305,1394.375 764.392305,1384.375 766.392305,1374.375 C768.392305,1364.375 771.392305,1355.375 776.392305,1347.375 C781.392305,1340.375 787.392305,1334.375 795.392305,1331.375 C797.392305,1323.375 800.392305,1317.375 804.392305,1312.375 C808.392305,1307.375 813.392305,1302.375 818.392305,1299.375 C824.392305,1296.375 830.392305,1294.375 836.392305,1293.375 C842.392305,1292.375 847.392305,1291.375 853.392305,1290.375 Z M870.392305,1511.375 C875.392305,1510.375 879.392305,1505.375 883.392305,1495.375 C886.392305,1485.375 889.392305,1473.375 890.392305,1458.375 C892.392305,1443.375 892.392305,1427.375 892.392305,1411.375 C891.392305,1394.375 890.392305,1379.375 887.392305,1364.375 C884.392305,1350.375 880.392305,1339.375 874.392305,1330.375 C869.392305,1321.375 862.392305,1317.375 853.392305,1318.375 C850.392305,1318.375 847.392305,1322.375 847.392305,1327.375 C846.392305,1332.375 845.392305,1338.375 845.392305,1345.375 C844.392305,1352.375 844.392305,1359.375 843.392305,1366.375 C842.392305,1374.375 840.392305,1379.375 836.392305,1383.375 C838.392305,1397.375 839.392305,1412.375 840.392305,1427.375 C842.392305,1442.375 843.392305,1457.375 845.392305,1469.375 C847.392305,1482.375 850.392305,1492.375 854.392305,1500.375 C857.392305,1508.375 863.392305,1512.375 870.392305,1511.375 Z M1118.3923,1162.375 C1128.3923,1160.375 1135.3923,1161.375 1142.3923,1165.375 C1149.3923,1168.375 1154.3923,1172.375 1157.3923,1177.375 C1161.3923,1181.375 1163.3923,1185.375 1163.3923,1189.375 C1163.3923,1193.375 1163.3923,1196.375 1160.3923,1196.375 C1158.3923,1196.375 1156.3923,1196.375 1154.3923,1196.375 C1152.3923,1196.375 1150.3923,1196.375 1148.3923,1195.375 C1145.3923,1195.375 1141.3923,1195.375 1137.3923,1195.375 C1133.3923,1195.375 1127.3923,1195.375 1119.3923,1196.375 C1105.3923,1198.375 1088.3923,1201.375 1070.3923,1207.375 C1052.3923,1212.375 1033.3923,1218.375 1014.3923,1223.375 C1014.3923,1237.375 1015.3923,1251.375 1016.3923,1267.375 C1016.3923,1284.375 1017.3923,1301.375 1019.3923,1318.375 C1020.3923,1336.375 1021.3923,1355.375 1023.3923,1373.375 C1025.3923,1392.375 1027.3923,1410.375 1029.3923,1427.375 C1033.3923,1453.375 1037.3923,1475.375 1041.3923,1493.375 C1046.3923,1511.375 1050.3923,1527.375 1054.3923,1539.375 C1058.3923,1551.375 1062.3923,1560.375 1065.3923,1566.375 C1068.3923,1573.375 1070.3923,1578.375 1072.3923,1582.375 C1074.3923,1585.375 1074.3923,1587.375 1073.3923,1588.375 C1072.3923,1589.375 1070.3923,1590.375 1066.3923,1590.375 C1054.3923,1592.375 1043.3923,1588.375 1032.3923,1578.375 C1021.3923,1569.375 1011.3923,1556.375 1002.3923,1540.375 C993.392305,1523.375 985.392305,1505.375 978.392305,1484.375 C972.392305,1464.375 967.392305,1444.375 964.392305,1423.375 C962.392305,1404.375 960.392305,1386.375 959.392305,1369.375 C957.392305,1353.375 956.392305,1337.375 955.392305,1322.375 C954.392305,1308.375 953.392305,1293.375 953.392305,1280.375 C953.392305,1267.375 952.392305,1253.375 951.392305,1241.375 C942.392305,1244.375 933.392305,1246.375 924.392305,1247.375 C915.392305,1249.375 906.392305,1251.375 898.392305,1252.375 C889.392305,1253.375 882.392305,1252.375 875.392305,1250.375 C869.392305,1247.375 864.392305,1244.375 860.392305,1240.375 C856.392305,1235.375 852.392305,1231.375 850.392305,1225.375 C848.392305,1221.375 846.392305,1216.375 846.392305,1212.375 C845.392305,1209.375 846.392305,1207.375 848.392305,1207.375 C850.392305,1206.375 853.392305,1206.375 857.392305,1207.375 C861.392305,1207.375 866.392305,1207.375 873.392305,1208.375 C879.392305,1208.375 888.392305,1208.375 897.392305,1207.375 C905.392305,1206.375 914.392305,1204.375 923.392305,1203.375 C932.392305,1201.375 941.392305,1200.375 950.392305,1198.375 C950.392305,1174.375 951.392305,1152.375 954.392305,1133.375 C956.392305,1115.375 960.392305,1099.375 967.392305,1086.375 C972.392305,1073.375 981.392305,1063.375 991.392305,1056.375 C1001.3923,1048.375 1015.3923,1043.375 1030.3923,1041.375 C1039.3923,1040.375 1047.3923,1041.375 1055.3923,1044.375 C1063.3923,1047.375 1069.3923,1050.375 1075.3923,1054.375 C1079.3923,1058.375 1083.3923,1062.375 1084.3923,1065.375 C1086.3923,1069.375 1085.3923,1071.375 1081.3923,1072.375 C1069.3923,1073.375 1057.3923,1076.375 1049.3923,1081.375 C1041.3923,1086.375 1033.3923,1093.375 1028.3923,1102.375 C1023.3923,1111.375 1019.3923,1122.375 1017.3923,1135.375 C1014.3923,1149.375 1013.3923,1165.375 1013.3923,1184.375 C1035.3923,1179.375 1056.3923,1175.375 1075.3923,1170.375 C1094.3923,1166.375 1108.3923,1163.375 1118.3923,1162.375 Z" id="Of"></path>
            <g id="Heart" transform="translate(303.000000, 1591.000000)">
                <path d="M1311,79 C1318,78 1321,79 1321,82 C1320,84 1317,87 1311,90 C1302,94 1291,98 1276,103 C1262,108 1246,113 1229,117 C1212,122 1193,127 1174,132 C1155,136 1136,141 1117,145 C1116,161 1115,178 1115,195 C1114,213 1114,230 1114,246 C1114,263 1113,278 1114,293 C1114,308 1115,321 1117,332 C1119,352 1123,369 1127,383 C1130,397 1134,409 1138,418 C1142,428 1146,435 1149,441 C1152,446 1154,450 1156,453 C1157,456 1157,458 1156,459 C1155,460 1152,461 1147,461 C1140,462 1132,460 1123,455 C1114,449 1105,440 1096,428 C1087,416 1079,401 1072,382 C1064,364 1059,343 1056,318 C1053,295 1051,269 1051,240 C1051,212 1051,183 1052,156 C1042,158 1031,159 1022,159 C1012,160 1003,161 995,161 C983,161 971,160 961,158 C951,156 941,154 931,151 C922,148 914,145 906,141 C898,138 891,135 885,131 C879,129 877,126 878,123 C879,121 882,120 885,120 C909,122 936,122 965,120 C994,119 1024,117 1054,114 L1055,100 C1056,82 1057,66 1058,53 C1059,40 1059,30 1058,25 C1057,15 1059,7 1064,4 C1070,1 1077,-4.5130566e-13 1084,2 C1092,4 1099,8 1106,14 C1113,21 1117,28 1118,37 C1119,41 1119,48 1119,58 C1119,67 1119,78 1119,91 L1118,107 C1139,104 1158,101 1177,98 C1196,95 1214,93 1231,90 C1248,88 1263,86 1277,83 C1291,81 1302,80 1311,79 Z" id="Shape"></path>
                <path d="M950,184 C957,183 963,183 970,182 C977,182 983,182 989,183 C994,185 1000,188 1004,192 C1008,197 1010,204 1012,213 C1013,223 1014,232 1014,241 C1013,250 1013,258 1011,265 C1009,272 1007,279 1003,283 C999,288 994,291 988,292 C976,293 966,293 958,290 C949,287 945,283 944,278 C944,276 944,271 944,266 C944,260 944,255 944,249 C945,243 945,236 945,228 C938,250 931,271 926,292 C924,301 921,310 919,320 C917,330 915,340 914,350 C912,360 911,369 910,378 C909,388 909,396 910,405 C912,413 915,419 917,425 C919,430 921,435 923,438 C925,442 926,444 927,446 C928,449 929,451 929,453 C929,455 928,457 924,460 C921,462 916,463 910,463 C904,463 897,461 890,458 C883,454 876,447 869,436 C862,428 856,416 851,401 C848,410 845,419 842,428 C838,442 832,453 827,464 C821,474 815,480 809,484 C807,485 805,485 801,486 C794,487 787,485 781,482 C775,478 769,473 764,467 C759,461 754,454 750,447 C747,440 743,433 740,426 C738,420 736,415 734,411 C732,407 731,405 731,405 C730,405 730,407 729,410 C728,414 726,418 725,423 C723,429 721,435 718,441 C716,448 713,453 710,459 C706,465 703,470 698,473 C693,478 687,480 681,481 C672,482 662,482 654,479 C646,477 638,473 631,467 C624,461 617,453 612,442 C611,439 610,436 609,433 C606,439 602,445 598,451 C592,460 584,468 575,475 C566,482 555,486 543,487 C526,490 511,488 498,483 C483,479 471,472 461,463 C451,454 442,444 436,433 C430,421 426,410 424,398 C422,383 422,369 423,355 C425,341 427,327 431,315 C432,311 434,306 435,302 C414,299 392,297 369,299 C370,320 372,342 374,365 C376,388 379,411 382,433 C384,450 387,465 391,476 C395,487 398,496 401,503 C403,509 404,514 404,517 C404,521 400,523 394,524 C383,525 373,520 364,507 C355,494 347,477 340,456 C333,435 327,412 322,385 C317,358 313,332 310,306 C302,307 293,309 285,311 C277,313 269,315 261,318 C264,341 266,365 267,389 C268,413 268,435 268,455 C267,480 263,501 256,520 C249,540 241,555 232,568 C222,581 213,590 203,596 C193,603 184,605 175,605 C170,605 167,604 166,603 C165,602 165,600 167,597 C169,594 171,590 175,584 C178,578 182,570 186,561 C189,551 192,539 196,524 C199,510 201,493 202,472 C203,456 202,436 201,413 C199,390 197,366 195,342 C176,350 160,359 145,368 C130,377 118,386 108,395 C105,396 101,395 97,391 C93,388 90,384 86,378 C83,373 81,368 78,362 C76,357 76,354 77,352 C77,350 80,346 86,343 C92,339 100,334 109,329 C119,325 131,320 144,314 C158,309 173,304 190,300 C189,287 188,275 186,263 C185,251 183,241 183,231 C182,223 180,215 180,205 C178,196 177,187 175,177 C173,167 171,158 168,148 C165,139 162,131 158,124 C154,117 149,111 143,107 C137,104 131,102 123,103 C113,104 102,108 93,114 C83,120 74,127 66,136 C58,145 51,154 44,165 C38,175 32,186 28,196 C24,207 21,217 19,226 C17,235 17,243 17,249 C18,254 18,259 16,262 C15,265 14,267 11,268 C10,268 7,267 5,265 C3,263 2,258 1,252 C1.13242749e-14,244 1.13242749e-14,234 2,222 C4,211 8,199 12,187 C17,175 24,163 31,152 C39,140 48,130 58,120 C67,111 78,102 90,96 C102,89 116,85 129,83 C144,81 158,84 172,91 C185,98 197,109 208,126 C220,142 229,162 237,188 C246,213 252,243 257,278 L258,285 C266,283 274,282 282,281 C290,281 298,280 306,280 C305,263 303,248 302,233 C300,218 299,205 298,193 C297,181 296,171 295,164 C295,156 294,150 294,148 C293,145 293,142 293,140 C293,138 294,136 295,134 C296,132 298,130 301,129 C304,127 308,126 313,126 C318,125 324,126 329,128 C335,130 339,133 344,136 C348,140 352,144 356,148 C359,153 361,157 361,161 C362,163 362,167 362,173 C363,180 363,188 363,199 C364,210 364,221 365,235 C366,249 367,264 367,279 C388,280 409,283 431,288 C434,288 437,289 440,291 C441,288 442,286 443,283 C448,274 452,267 456,262 C461,257 466,254 474,251 C481,248 488,246 496,245 C504,244 511,243 518,243 C525,243 531,244 535,245 C542,248 549,253 555,262 C561,271 565,282 567,295 C570,319 567,337 558,351 C550,365 538,373 522,374 C516,375 511,375 504,375 C498,374 492,374 487,373 C487,384 490,395 494,406 C499,416 504,425 510,433 C516,441 522,447 530,452 C537,456 544,458 550,457 C560,456 569,453 576,447 C584,442 590,436 595,428 C598,424 601,419 604,414 C603,410 602,406 602,402 C600,387 600,371 602,352 C603,333 607,315 614,298 C620,281 629,267 641,254 C652,242 667,235 684,232 C697,231 708,230 718,229 C728,229 737,230 745,233 C753,236 760,242 765,251 C771,259 774,272 776,288 C777,290 776,291 775,293 C773,294 771,295 769,296 C767,297 765,297 763,297 C761,296 760,295 760,292 C759,290 759,286 758,281 C756,276 754,270 752,265 C750,260 747,256 744,252 C741,248 737,247 732,248 C721,249 710,255 701,265 C692,276 684,290 678,306 C673,323 668,341 666,361 C664,382 665,402 667,423 C668,427 669,432 670,437 C671,442 672,447 674,451 C676,455 678,459 680,462 C683,465 686,466 690,465 C692,465 694,462 697,457 C699,452 702,446 704,438 C706,429 708,421 710,411 C712,402 714,392 715,383 C716,375 717,366 717,358 C718,351 718,345 717,341 C717,339 717,337 717,333 C717,330 717,327 719,324 C720,322 722,319 726,317 C730,315 735,313 742,312 C757,310 768,311 774,315 C781,320 785,324 786,329 L787,337 C788,344 790,355 792,368 C793,381 796,394 798,407 C801,420 803,431 807,440 C810,449 813,453 817,453 C818,453 821,449 824,441 C826,434 829,424 833,413 C836,402 839,389 842,375 L842,375 C838,360 835,342 832,322 C831,311 830,298 828,285 C827,271 827,258 827,247 C827,235 828,226 830,218 C832,210 835,206 839,205 C855,203 867,205 876,211 C884,217 889,225 890,234 C891,239 891,244 891,249 C890,255 890,261 890,267 C889,273 889,280 889,288 C889,295 890,303 891,311 C893,328 896,343 898,355 C899,345 900,334 902,322 C904,309 906,297 909,284 C912,272 914,260 918,248 C921,236 924,225 928,216 C932,207 935,199 939,193 C942,188 946,185 950,184 Z M516,280 C510,281 504,284 500,289 C495,293 492,300 489,307 C486,314 484,323 483,332 C481,342 481,351 481,362 C491,364 500,364 507,361 C514,358 520,354 524,347 C528,341 530,334 531,326 C533,318 532,310 532,303 C531,297 529,291 526,286 C523,281 520,280 516,280 Z" id="Shape"></path>
            </g>
        </g>
    </g>
</svg>