
<svg width="88px" height="94px" viewBox="0 0 88 94" version="1.1" xmlns="http://www.w3.org/2000/svg" xmlns:xlink="http://www.w3.org/1999/xlink">
    <!-- Generator: Sketch 46.2 (44496) - http://www.bohemiancoding.com/sketch -->
    <desc>Created with Sketch.</desc>
    <defs></defs>
    <g id="Page-1" stroke="none" stroke-width="1" fill="none" fill-rule="evenodd">
        <g id="Artboard" transform="translate(-167.000000, -10.000000)">
            <g id="Navigation">
                <g id="Logo" transform="translate(167.000000, 10.000000)">
                    <path d="M38.2511542,14.2789989 C38.4339797,14.9745375 38.6574331,15.5473341 38.9621422,16.1405876 C39.2059095,16.3860718 42.1920591,20.7638738 44.1421976,16.611099 C45.5438596,13.6448313 43.5124654,10.7399347 43.1874423,8.12143634 C43.0046168,6.60761697 43.5327793,4.9710555 44.2437673,4.11186072 C43.8374885,6.17801959 43.9796861,7.56909684 45.0156971,9.08291621 C45.6860572,10.0648531 46.1532779,11.1899891 46.2142198,12.4787813 C46.2751616,13.5220892 45.9501385,13.6652884 46.11265,13.8903156 C46.3767313,13.4402612 46.498615,13.4402612 46.7830102,12.8060936 C46.9658356,12.3764962 47.0674054,11.9673558 47.1283472,11.4354733 C47.7987073,12.9083787 47.9612188,15.5677911 46.9455217,17.1634385 C46.498615,17.8589771 46.0923361,18.0840044 45.8485688,18.3908596 L45.9501385,18.3908596 C46.2954755,18.1862894 46.7626962,18.0840044 47.1283472,17.8794342 C48.1237304,17.3066376 48.956602,16.4883569 49.322253,15.2609358 C50.4598338,11.5377584 47.1689751,9.10337323 46.2954755,5.78933624 C45.7469991,3.68226333 46.2142198,1.8820457 46.4173592,0 L46.3767313,0 C46.11265,0.204570185 45.2797784,0.654624592 44.1625115,1.57519042 C43.6140351,2.02524483 42.943675,2.84352557 42.4967682,3.60043526 C40.0590951,7.6304679 42.232687,12.7242655 40.810711,13.0515778 C39.9575254,13.235691 39.7137581,11.3127312 39.6731302,10.5558215 C39.5715605,8.67377584 39.9168975,6.73035909 40.6278855,5.03242655 C40.6685134,4.90968444 40.7091413,4.80739935 40.7700831,4.70511425 C40.8310249,4.56191513 40.8513389,4.54145811 40.9122807,4.37780196 C40.4044321,4.80739935 39.5106187,6.3007617 39.0637119,7.18041349 C37.7839335,9.59434168 37.601108,11.7218716 38.2511542,14.2789989 Z" id="Shape" fill="#FFFFFF"></path>
                    <path d="M1.82825485,52.9632209 C1.88919668,52.6154516 1.8079409,51.5516866 1.84856879,51.0402612 C2.0923361,47.7262242 3.43305633,44.4735582 5.30193906,41.8346028 C5.54570637,41.4663765 5.85041551,40.6071817 5.54570637,40.1775843 C5.26131117,40.6480958 4.97691597,40.914037 4.55032318,41.4050054 C3.77839335,42.2642002 2.6611265,44.1257889 2.15327793,45.291839 C-2.3767313,55.7249184 2.33610342,69.8402612 5.30193906,80.1096844 C5.93167128,82.2781284 6.54108957,84.4056583 7.06925208,86.6763874 C7.31301939,87.7810664 7.53647276,89.0084875 7.63804247,90.1949946 C7.80055402,91.9338411 7.59741459,92.4248096 7.37396122,94 C9.77100646,93.5090316 10.644506,91.6883569 10.9289012,88.9062024 C11.2539243,86.0626768 10.8476454,84.1601741 10.0960295,81.6439608 C8.79593721,77.3479869 7.29270545,73.2770403 5.93167128,69.0219804 C4.12373038,63.3963003 1.60480148,53.6996736 4.71283472,47.9103373 C5.8910434,45.7214363 5.24099723,47.3784548 6.09418283,44.9645267 C6.54108957,43.7371055 6.96768236,43.0620239 7.43490305,42.018716 C6.86611265,42.1005441 6.09418283,42.1619151 5.78947368,42.4687704 C5.09879963,43.1847661 3.92059095,45.373667 3.49399815,46.3556039 C2.3767313,48.8513602 2.21421976,50.0378672 1.82825485,52.9632209 Z" id="Shape" fill="#FFFFFF"></path>
                    <path d="M11.721145,89.7449402 C13.6306556,89.1516866 14.3619575,86.1445049 14.4228994,84.1192601 C14.565097,79.4959739 12.2696214,75.3841132 10.7257618,71.5791077 C8.63342567,66.362568 5.8910434,56.6659412 8.34903047,51.1834603 C8.81625115,50.1401523 8.85687904,50.6106638 9.06001847,49.2195865 C8.91782087,49.2809576 7.67867036,50.3856366 7.21144968,50.6720348 C6.39889197,51.1630033 6.35826408,51.3675734 6.033241,53.1473341 C5.85041551,54.2724701 5.76915974,55.4589771 5.80978763,56.6045702 C5.85041551,57.4023939 6.1754386,59.1821545 6.11449677,59.673123 C6.1754386,59.4685528 5.66759003,57.7297062 5.56602031,57.1978237 C5.26131117,55.336235 5.24099723,53.126877 5.66759003,51.2857454 C5.85041551,50.5083787 5.7488458,50.6720348 5.58633426,49.9764962 C5.4644506,49.5264418 5.50507849,48.9945593 5.38319483,48.605876 C3.79870729,51.2243743 4.00184672,56.420457 4.53000923,59.6526659 C5.54570637,66.0966268 8.1255771,72.7451578 10.1569714,78.8822633 C11.5180055,83.0145811 12.1477378,84.8557127 11.721145,89.7449402 Z" id="Shape" fill="#FFFFFF"></path>
                    <path d="M12.5133887,30.1945593 C13.3665743,29.4990207 14.4635272,28.721654 15.6620499,28.4966268 C16.0277008,27.7601741 16.4542936,27.1055495 16.9215143,26.491839 C14.9307479,26.8600653 12.8180979,28.4352557 12.5133887,30.1945593 Z M13.854109,36.6589771 C13.0212373,38.6023939 12.5743306,40.9958651 13.2446907,43.0211099 C13.5493998,44.0030468 13.8134811,44.268988 14.2603878,44.9849837 C14.9510619,46.0282916 16.1698984,46.9693145 17.5715605,47.7057671 L17.754386,47.8080522 C17.2059095,46.8465724 16.677747,45.8646355 16.2105263,44.8622416 C14.8698061,42.018716 13.9963066,39.0115343 13.854109,36.6589771 Z" id="Shape" fill="#FFFFFF"></path>
                    <path d="M15.3370268,83.4237214 C17.3684211,82.1963003 17.1449677,78.2890098 16.3933518,75.7727965 C15.6823638,73.3793254 14.4432133,71.2927095 13.5087719,69.0424374 C11.9649123,65.298803 10.4819945,58.9571273 12.2086796,54.9270947 C12.5337027,54.190642 12.8993536,54.0065288 12.77747,53.1677911 C12.5337027,53.3109902 12.7165282,53.1882481 12.5337027,53.3519042 C12.5133887,53.3723613 12.3711911,53.5155604 12.3508772,53.5360174 C10.8070175,55.254407 10.6038781,54.5384113 10.299169,55.9908596 C9.91320406,57.8115343 9.97414589,59.0389554 10.0554017,60.818716 C9.56786704,59.6322089 9.46629732,57.8319913 9.54755309,56.359086 C9.60849492,55.1725789 9.87257618,55.295321 9.42566944,54.211099 C9.16158818,53.5769314 9.10064635,52.9632209 8.9787627,52.2676823 L8.71468144,52.7791077 C8.6943675,52.8609358 8.63342567,53.1473341 8.61311173,53.2496192 C8.38965836,54.3747552 8.2677747,55.5408052 8.2677747,56.6863983 C8.2677747,60.8800871 9.26315789,64.9305767 10.6038781,68.7560392 C12.9602955,75.5068553 14.2400739,75.3636561 15.3370268,83.4237214 Z" id="Shape" fill="#FFFFFF"></path>
                    <path d="M17.754386,77.4707291 C20.4155125,73.011099 17.5715605,70.2289445 16.1698984,66.7512514 C15.1542013,64.2350381 14.5041551,60.3482046 15.4792244,57.5865071 C16.1698984,55.6021763 16.6980609,56.359086 16.3527239,55.0702938 C15.9870729,55.4180631 15.601108,56.1749728 15.255771,56.5227421 C14.6057248,57.1364527 14.544783,56.5841132 14.179132,57.8729053 C13.5087719,60.2254625 13.9150508,60.85963 13.7728532,62.2097933 C13.7728532,61.943852 13.5087719,61.1664853 13.4478301,60.6550598 C13.1634349,57.7501632 14.199446,56.8705114 13.122807,55.1725789 C12.1274238,56.5431991 12.2696214,59.7958651 12.4524469,61.5960827 C12.8587258,65.4010881 14.3416436,68.9401523 15.9464451,72.2337323 C16.3527239,73.031556 16.6980609,73.8702938 17.0027701,74.7499456 C17.2262235,75.4250272 17.5309326,76.9797606 17.754386,77.4707291 Z" id="Shape" fill="#FFFFFF"></path>
                    <path d="M10.0757156,37.0067465 C9.91320406,37.3749728 9.77100646,37.4158868 9.46629732,37.7841132 C9.28347184,38.0091404 9.01939058,38.2955386 8.8365651,38.5205658 C9.01939058,38.2955386 9.16158818,38.0909684 9.36472761,37.8045702 C9.48661127,37.6818281 9.56786704,37.5386289 9.66943675,37.4158868 L10.0757156,37.0067465 Z M6.50046168,41.2822633 C8.06463527,40.9958651 9.64912281,40.1366703 10.9289012,39.2365615 C13.5290859,37.4158868 11.721145,38.9297062 13.5697138,35.2474429 L13.8947368,34.6541893 C13.9353647,34.2041349 13.9963066,33.7540805 14.0775623,33.3244831 L13.854109,33.5085963 L11.3351801,35.8611534 C11.1320406,36.0861806 10.9695291,36.2293798 10.7867036,36.454407 C10.6648199,36.5771491 10.644506,36.6385201 10.5023084,36.7612622 C10.5023084,36.7817193 10.3194829,36.9044614 10.3194829,36.9249184 C10.0350877,37.0885745 10.4819945,36.9249184 10.0757156,37.0067465 C10.2585411,36.515778 12.7977839,33.8154516 13.4478301,33.201741 C13.7119114,32.9562568 13.9759926,32.7107726 14.2400739,32.4652884 C14.4635272,31.4424374 14.7682364,30.4809576 15.1338873,29.5808487 C14.3010157,29.9490751 13.5087719,30.5627856 13.2040628,30.7878128 C10.644506,32.7926007 6.62234534,38.3569097 6.50046168,41.2822633 Z" id="Shape" fill="#FFFFFF"></path>
                    <path d="M0.101569714,48.605876 C0.873499538,45.5577802 1.8079409,43.6961915 3.39242844,41.4663765 C5.99261311,37.8250272 5.91135734,39.788901 7.88180979,35.6156692 C5.0378578,36.9453754 4.18467221,38.3773667 3.45337027,38.9297062 C3.85964912,37.0476605 8.6943675,34.4087051 9.18190212,33.7949946 C9.48661127,33.4063112 9.68975069,33.0994559 9.99445983,32.7516866 C10.2585411,32.4448313 10.6648199,32.035691 10.8070175,31.6879217 C8.67405355,32.076605 5.8910434,34.1018498 4.36749769,35.5952122 C4.04247461,35.9225245 3.90027701,36.1680087 3.55493998,36.515778 C2.31578947,37.7431991 1.05632502,40.3412405 0.548476454,42.2642002 C0.284395199,43.2461371 0.121883657,44.248531 0.0406278855,45.312296 C-0.0609418283,46.5397171 0.101569714,47.6239391 0.101569714,48.605876 Z" id="Shape" fill="#FFFFFF"></path>
                    <path d="M19.2982456,71.3949946 C22.6297322,69.7584331 17.1855956,64.8078346 18.2216066,60.0413493 C18.6075716,58.3025027 19.3795014,57.8933624 20.0498615,57.0137106 L19.7654663,56.3181719 C19.4404432,56.7068553 19.156048,57.2182807 18.8310249,57.5865071 C18.3841182,58.1183896 18.2622345,57.9342764 17.9168975,58.7730141 C17.388735,60.0822633 17.3277932,61.0232862 17.3074792,62.5166485 C16.8808864,61.7801959 16.9621422,60.4300326 17.0637119,59.4890098 C17.1449677,58.6707291 17.6934441,57.7501632 16.7386888,56.8500544 C16.1902124,58.4866159 15.8855032,58.4661589 15.8855032,60.85963 C15.8651893,66.0557127 18.5263158,68.7151251 19.2982456,71.3949946 Z" id="Shape" fill="#FFFFFF"></path>
                    <path d="M6.48014774,50.0378672 C7.47553093,49.6491839 8.87719298,48.0739935 9.56786704,47.2352557 C9.85226223,46.9079434 10.2179132,46.5192601 10.4819945,46.1510337 C11.0507849,45.332753 11.5180055,44.7394995 12.0258541,43.7575626 C12.5133887,42.8369967 12.066482,42.5505985 12.0258541,40.3003264 C11.0914127,41.2618063 9.46629732,43.7575626 8.75530933,45.1486398 C8.6943675,45.2713819 8.63342567,45.4350381 8.5521699,45.5577802 C8.5521699,45.5782372 8.53185596,45.5986942 8.51154201,45.6191513 C8.51154201,45.6396083 8.49122807,45.6805223 8.47091413,45.7009793 C8.30840259,45.9669206 8.4099723,45.8237214 8.32871653,45.9055495 C8.38965836,45.0054407 9.71006464,42.5505985 10.2585411,41.6300326 C10.5226223,41.1799782 10.8476454,40.6890098 11.010157,40.3207835 C9.16158818,41.1595212 8.4099723,41.8755169 7.43490305,43.9825898 C6.52077562,45.9464635 6.11449677,47.7262242 6.48014774,50.0378672 Z" id="Shape" fill="#FFFFFF"></path>
                    <path d="M6.13481071,31.7492927 L6.43951985,31.3196953 C6.41920591,31.3401523 6.37857802,31.3606094 6.37857802,31.4015234 C6.37857802,31.4424374 6.29732225,31.5038085 6.27700831,31.5447225 C6.11449677,31.7902067 6.27700831,31.4424374 6.13481071,31.7492927 Z M2.35641736,36.454407 L2.62049861,36.2089227 C2.70175439,36.1270947 2.76269621,36.0452666 2.82363804,35.9634385 C4.65189289,33.6722524 8.47091413,30.992383 11.4367498,30.6036997 L11.9649123,29.0285092 C10.5429363,29.1307943 8.71468144,29.7649619 7.53647276,30.4809576 C7.04893813,30.7878128 6.82548476,31.1560392 6.43951985,31.3196953 C6.90674054,30.4195865 8.63342567,29.3558215 9.91320406,28.8443961 C12.77747,27.678346 11.9039705,28.8648531 13.6915974,27.0032644 L13.8744229,26.7986942 C8.77562327,26.7986942 3.02677747,31.2174102 2.35641736,36.454407 Z" id="Shape" fill="#FFFFFF"></path>
                    <path d="M9.83194829,50.5697497 C9.81163435,51.6539717 9.77100646,53.3519042 10.4007387,54.0883569 C12.2899354,53.0041349 14.5041551,49.2809576 14.5854109,46.5806311 C13.9353647,46.1305767 13.7322253,45.6805223 13.2040628,45.1281828 C12.77747,46.6420022 11.1523546,51.1425462 10.9492151,52.0835691 L12.4524469,44.8826986 C10.8882733,47.562568 9.93351801,47.0511425 9.83194829,50.5697497 Z" id="Shape" fill="#FFFFFF"></path>
                    <path d="M15.0323176,53.8224157 L15.1338873,49.0354733 L13.5697138,52.2063112 C13.488458,53.0245919 14.0775623,55.3976061 14.4025854,56.0113166 C15.2151431,55.3566921 15.9058172,54.0883569 16.4136657,52.8609358 C16.9012004,51.6539717 17.4699908,50.1810664 17.5106187,48.7695321 C17.1652816,48.4626768 16.2511542,47.9717084 15.8448753,47.7466812 C15.6417359,49.5264418 15.5198523,52.1653972 15.0323176,53.8224157 Z" id="Shape" fill="#FFFFFF"></path>
                    <path d="M22.0609418,53.7815016 C22.0203139,54.4974973 21.9390582,55.1316649 21.7765466,55.5612622 C21.7562327,54.7429815 21.7156048,54.0269859 21.654663,53.3109902 C21.4312096,53.065506 21.2280702,52.8200218 21.0249307,52.5745375 L20.4764543,54.5793254 C20.212373,55.4385201 20.8624192,56.9318825 21.3499538,57.463765 C22.0406279,56.9932535 22.6500462,56.0317737 23.0969529,54.8657236 C22.7313019,54.5179543 22.3859649,54.170185 22.0609418,53.7815016 Z" id="Shape" fill="#000000"></path>
                    <path d="M18.0184672,57.1364527 C19.0747922,56.379543 19.9279778,53.8428727 20.3342567,51.6744287 C19.8264081,51.0198041 19.3388735,50.3242655 18.8716528,49.6082699 C18.7294552,51.6130577 18.8513389,54.170185 18.2012927,55.8476605 C18.2216066,54.170185 18.465374,52.1449402 18.1403509,50.5288357 C17.7137581,53.0245919 16.5964912,52.5336235 17.4090489,55.6430903 C17.5309326,56.1136017 17.6934441,56.7886834 18.0184672,57.1364527 Z" id="Shape" fill="#FFFFFF"></path>
                    <path d="M9.58818098,26.7577802 C10.9492151,26.3895539 12.0258541,25.8985854 13.7322253,25.9190424 C15.4589104,25.9394995 14.199446,26.2668118 15.9870729,25.7553863 C16.5558633,25.5917301 17.1246537,25.5508161 17.7137581,25.5508161 C17.7746999,25.468988 17.8559557,25.38716 17.9372114,25.3053319 C16.8402585,24.6507073 14.6869806,24.6916213 13.4478301,24.9575626 C11.8024007,25.3053319 10.6851339,25.9599565 9.58818098,26.7577802 Z" id="Shape" fill="#FFFFFF"></path>
                    <path d="M86.2530009,50.876605 C86.1717452,50.5492927 86.1920591,49.4855277 86.1311173,48.9741023 C85.7045245,45.6805223 84.2012927,42.4892274 82.1902124,39.9525571 C81.9261311,39.6047878 81.5807941,38.7660501 81.8651893,38.3159956 C82.1698984,38.7660501 82.4542936,39.0319913 82.9215143,39.4820457 C83.734072,40.3003264 84.9529086,42.1005441 85.521699,43.2256801 C90.6001847,53.4132753 86.6186519,67.7741023 84.2012927,78.1662677 C83.6934441,80.3756257 83.2059095,82.5440696 82.7996307,84.8352557 C82.6168052,85.9603917 82.4542936,87.1673558 82.4136657,88.3743199 C82.3527239,90.1131665 82.5761773,90.6041349 82.8808864,92.1588683 C80.4635272,91.790642 79.5087719,90.0313384 79.0618652,87.2696409 C78.5946445,84.4465724 78.8993536,82.5031556 79.5087719,79.9664853 C80.5854109,75.6091404 81.8651893,71.4768226 83.0027701,67.1399347 C84.5060018,61.4324266 86.5170822,51.6130577 83.1043398,45.9873776 C81.8042475,43.8803047 82.5558633,45.4964091 81.5604801,43.123395 C81.0729455,41.9368879 80.6057248,41.2618063 80.0775623,40.2594124 C80.6463527,40.3003264 81.4182825,40.3207835 81.7433056,40.6276387 C82.4542936,41.3027203 83.754386,43.4097933 84.2419206,44.3712731 C85.501385,46.8056583 85.7248384,47.9921654 86.2530009,50.876605 Z" id="Shape" fill="#FFFFFF"></path>
                    <path d="M78.3102493,88.1492927 C76.3601108,87.6583243 75.4866113,84.6920566 75.3240997,82.6668118 C74.9381348,78.0639826 77.010157,73.8293798 78.3508772,69.9425462 C80.179132,64.6237214 82.3933518,54.8043526 79.6509695,49.4446137 C79.143121,48.4422198 79.1024931,48.9127312 78.8180979,47.542111 C78.9806094,47.583025 80.2807018,48.626333 80.7682364,48.8922742 C81.601108,49.3218716 81.6417359,49.5468988 82.0480148,51.2857454 C82.312096,52.3904244 82.4339797,53.5769314 82.4542936,54.7429815 C82.4746076,55.5408052 82.2308403,57.3205658 82.33241,57.8115343 C82.2511542,57.6274211 82.677747,55.8476605 82.7386888,55.315778 C82.9418283,53.4337323 82.8605725,51.2243743 82.33241,49.4241567 C82.1089566,48.64679 82.2105263,48.8104461 82.3527239,48.0944505 C82.4339797,47.6648531 82.3730379,47.1125136 82.4746076,46.7238303 C84.2012927,49.2400435 84.2622345,54.4565832 83.9168975,57.7092492 C83.2262235,64.194124 81.0120037,70.9858542 79.3056325,77.2252448 C78.1680517,81.3984766 77.6195753,83.2805223 78.3102493,88.1492927 Z" id="Shape" fill="#FFFFFF"></path>
                    <path d="M74.3896584,28.721654 C73.4755309,28.0670294 72.3582641,27.3510337 71.1394275,27.1873776 C70.7331487,26.491839 70.2862419,25.8372144 69.7783934,25.2439608 C71.7894737,25.5303591 73.9630656,26.9623504 74.3896584,28.721654 Z M73.3942752,35.2474429 C74.3084026,37.1499456 74.877193,39.5025027 74.3287165,41.5686616 C74.0646353,42.5505985 73.8411819,42.8369967 73.4145891,43.5734494 C72.7848569,44.6576714 71.6066482,45.6600653 70.265928,46.478346 L70.0627886,46.5806311 C70.5706371,45.5986942 71.0378578,44.5758433 71.4644506,43.5734494 C72.6629732,40.6480958 73.3536473,37.6 73.3942752,35.2474429 Z" id="Shape" fill="#FFFFFF"></path>
                    <path d="M74.3693444,82.0326442 C72.2770083,80.9075082 72.2973223,77.0002176 72.9067405,74.4430903 C73.4958449,72.0087051 74.6334257,69.8607182 75.4459834,67.5695321 C76.7867036,63.7440696 77.9242844,57.3410229 75.9944598,53.4132753 C75.6288089,52.6768226 75.242844,52.5336235 75.3240997,51.6744287 C75.588181,51.8176279 75.3850416,51.6948857 75.588181,51.8380849 C75.6084949,51.8585419 75.7506925,52.001741 75.7710065,52.022198 C77.4164358,53.6383025 77.5789474,52.9223069 77.9649123,54.3747552 C78.432133,56.1749728 78.432133,57.3819369 78.4524469,59.1821545 C78.8790397,57.9547334 78.8790397,56.1545158 78.7165282,54.7020675 C78.5946445,53.4951034 78.3508772,53.6383025 78.7368421,52.5336235 C78.9602955,51.8994559 78.9806094,51.2857454 79.0821791,50.5697497 L79.3665743,51.0607182 C79.4072022,51.1630033 79.468144,51.4289445 79.488458,51.5312296 C79.7728532,52.6359086 79.9556787,53.8019587 80.0166205,54.9475517 C80.2400739,59.1207835 79.468144,63.2326442 78.3305633,67.1399347 C76.3194829,73.9930359 75.0397045,73.9112078 74.3693444,82.0326442 Z" id="Shape" fill="#FFFFFF"></path>
                    <path d="M71.6472761,76.2228509 C68.7626962,71.90642 71.4441367,68.9810664 72.6629732,65.4010881 C73.5364728,62.8439608 73.9833795,58.9366703 72.8661127,56.2363439 C72.0738689,54.2929271 71.5863343,55.0702938 71.8504155,53.7610446 C72.2363804,54.0883569 72.6629732,54.8248096 73.0286242,55.1521219 C73.6989843,55.7453754 73.7396122,55.1930359 74.1865189,56.440914 C74.9787627,58.7525571 74.6131117,59.4071817 74.7959372,60.7573449 C74.7959372,60.4914037 75.0193906,59.714037 75.0397045,59.1821545 C75.1819021,56.2772579 74.0849492,55.4385201 75.0803324,53.6996736 C76.1569714,55.0089227 76.1975993,58.2615887 76.0960295,60.0618063 C75.8928901,63.9077258 74.5927978,67.5286181 73.1708218,70.8835691 C72.8254848,71.7018498 72.5004617,72.5610446 72.2566944,73.4406964 C72.0535549,74.136235 71.8504155,75.7114255 71.6472761,76.2228509 Z" id="Shape" fill="#FFFFFF"></path>
                    <path d="M77.1726685,35.390642 C77.355494,35.7588683 77.4976916,35.7793254 77.8227147,36.1475517 C78.0258541,36.3521219 78.3102493,36.6385201 78.4930748,36.8430903 C78.2899354,36.6180631 78.1477378,36.4339499 77.9242844,36.1680087 C77.8024007,36.0248096 77.700831,35.9020675 77.5992613,35.7793254 L77.1726685,35.390642 Z M80.9713758,39.4820457 C79.3868883,39.2774755 77.7617729,38.5001088 76.4413666,37.6613711 C73.7599261,35.9838955 75.6288089,37.3954298 73.5974146,33.8154516 L73.2317636,33.2426551 C73.1708218,32.7926007 73.089566,32.3630033 72.9879963,31.9334059 L73.2317636,32.097062 L75.8522622,34.30642 C76.0757156,34.5314472 76.2382271,34.6746464 76.4413666,34.8792165 C76.5632502,35.0019587 76.5835642,35.0428727 76.7257618,35.1656148 C76.7460757,35.1860718 76.9085873,35.3088139 76.9289012,35.3088139 C77.2336103,35.4724701 76.7460757,35.3292709 77.1726685,35.390642 C76.9695291,34.9201306 74.2880886,32.3630033 73.5974146,31.7697497 C73.3333333,31.5447225 73.0489381,31.2992383 72.7848569,31.0742111 C72.5004617,30.0718172 72.1551247,29.1307943 71.7285319,28.2511425 C72.5817175,28.5579978 73.3942752,29.1307943 73.7192982,29.3558215 C76.3804247,31.1969532 80.7072946,36.5566921 80.9713758,39.4820457 Z" id="Shape" fill="#FFFFFF"></path>
                    <path d="M87.7359187,46.437432 C86.8014774,43.4302503 85.7857802,41.6300326 84.079409,39.4820457 C81.2760849,35.9838955 81.4792244,37.9477693 79.2853186,33.8972797 C82.1902124,35.0633297 83.1246537,36.454407 83.8762696,36.9453754 C83.388735,35.1042437 78.411819,32.7312296 77.8836565,32.1379761 C77.5789474,31.7697497 77.355494,31.4833515 77.0304709,31.1355822 C76.7460757,30.8491839 76.3194829,30.4605005 76.1569714,30.1127312 C78.3102493,30.3786725 81.1948292,32.2607182 82.7793167,33.6722524 C83.1449677,33.9791077 83.3074792,34.2245919 83.6528163,34.5519042 C84.9529086,35.7179543 86.3545706,38.2546246 86.9639889,40.1162133 C87.2686981,41.0981502 87.5124654,42.1005441 87.634349,43.143852 C87.7968606,44.3508161 87.6749769,45.4554951 87.7359187,46.437432 Z" id="Shape" fill="#FFFFFF"></path>
                    <path d="M69.7783934,70.2289445 C66.365651,68.7764962 71.5457064,63.5190424 70.245614,58.8343852 C69.7783934,57.1159956 68.9861496,56.7477693 68.2548476,55.9090316 L68.5189289,55.1930359 C68.8642659,55.5612622 69.1689751,56.0522307 69.5143121,56.420457 C69.9815328,56.9318825 70.1034164,56.7477693 70.4893813,57.545593 C71.0784857,58.8343852 71.2003693,59.754951 71.3019391,61.2687704 C71.687904,60.4914037 71.5253924,59.1616975 71.3831948,58.2206746 C71.2613112,57.4023939 70.6518929,56.5227421 71.5660203,55.5817193 C72.2160665,57.1569097 72.5004617,57.1364527 72.6426593,59.5094668 C72.9270545,64.7260065 70.4081256,67.508161 69.7783934,70.2289445 Z" id="Shape" fill="#FFFFFF"></path>
                    <path d="M81.4589104,48.2171926 C80.4432133,47.8694233 78.9602955,46.3760609 78.2086796,45.5782372 C77.9242844,45.2509249 77.5383195,44.9031556 77.2539243,44.5553863 C76.644506,43.7575626 76.1366574,43.1847661 75.567867,42.2437432 C75.0600185,41.3640914 75.4662973,41.0367791 75.3850416,38.7865071 C76.3804247,39.6866159 78.1477378,42.1005441 78.9196676,43.4507073 C79.0009234,43.5734494 79.0618652,43.7166485 79.143121,43.8393906 C79.143121,43.8598477 79.1634349,43.9007617 79.1837488,43.9212187 C79.2040628,43.9416757 79.2040628,43.9621328 79.2243767,43.9825898 C79.4072022,44.248531 79.3056325,44.1053319 79.3868883,44.18716 C79.2650046,43.2870511 77.8430286,40.914037 77.2336103,40.0139282 C76.9492151,39.5843308 76.6038781,39.1138194 76.4210526,38.745593 C78.3102493,39.4820457 79.0821791,40.1775843 80.179132,42.2232862 C81.1948292,44.1257889 81.7026777,45.8850925 81.4589104,48.2171926 Z" id="Shape" fill="#FFFFFF"></path>
                    <path d="M80.8291782,29.9286181 L80.5041551,29.5194777 C80.5244691,29.5399347 80.565097,29.5603917 80.565097,29.6013058 C80.5854109,29.6422198 80.6463527,29.7035909 80.6666667,29.7240479 C80.8494922,29.9695321 80.6869806,29.6217628 80.8291782,29.9286181 Z M84.8513389,34.4291621 L84.5872576,34.2041349 C84.5060018,34.1223069 84.4247461,34.0404788 84.3638042,33.9586507 C82.4136657,31.7697497 78.4524469,29.3149075 75.4662973,29.0694233 L74.856879,27.5146899 C76.299169,27.5556039 78.1477378,28.0874864 79.3462604,28.742111 C79.854109,29.0285092 80.0978763,29.3762786 80.5041551,29.5194777 C79.9759926,28.6398259 78.2086796,27.678346 76.9085873,27.2282916 C73.9833795,26.2258977 74.9178209,27.3714908 73.0286242,25.5917301 L72.8254848,25.407617 C77.9242844,25.1212187 83.8965836,29.2330794 84.8513389,34.4291621 Z" id="Shape" fill="#FFFFFF"></path>
                    <path d="M78.1274238,48.9331882 C78.2086796,49.9969532 78.3305633,51.7153428 77.7617729,52.4722524 C75.8116343,51.4903156 73.3942752,47.8898803 73.1708218,45.1895539 C73.800554,44.6985854 73.9833795,44.248531 74.4709141,43.6552775 C74.9990766,45.1486398 76.8273315,49.5673558 77.0914127,50.5083787 L75.2022161,43.3893362 C76.9289012,45.9669206 77.8430286,45.4145811 78.1274238,48.9331882 Z" id="Shape" fill="#FFFFFF"></path>
                    <path d="M73.10988,52.4517954 L72.7645429,47.6648531 L74.4912281,50.7538629 C74.6131117,51.5721436 74.145891,53.9656148 73.8614958,54.5997824 C73.0083102,53.9860718 72.2566944,52.7586507 71.687904,51.5516866 C71.1191136,50.3856366 70.4690674,48.9331882 70.3674977,47.521654 C70.6925208,47.2147987 71.5863343,46.6624592 71.9722992,46.437432 C72.2770083,48.1967356 72.5410896,50.8152339 73.10988,52.4517954 Z" id="Shape" fill="#FFFFFF"></path>
                    <path d="M66.1015697,52.7791077 C66.1625115,53.4951034 66.2843952,54.1292709 66.4672207,54.5384113 C66.4469067,53.7201306 66.4469067,53.0041349 66.4672207,52.3085963 C66.6703601,52.0426551 66.8734995,51.7767138 67.056325,51.5107726 L67.7063712,53.4951034 C68.0313943,54.3338411 67.4422899,55.8681175 66.9953832,56.420457 C66.2640813,55.9908596 65.634349,55.0498368 65.1265005,53.9247008 C65.4515235,53.5769314 65.7765466,53.1882481 66.1015697,52.7791077 Z" id="Shape" fill="#000000"></path>
                    <path d="M70.3065559,55.9090316 C69.209603,55.2134929 68.2142198,52.7177367 67.7063712,50.5902067 C68.1735919,49.8946681 68.6204986,49.1786725 69.0470914,48.4422198 C69.3111727,50.4470076 69.3314866,53.0041349 70.0627886,54.6406964 C69.9612188,52.9632209 69.5955679,50.9584331 69.8393352,49.3218716 C70.3878116,51.7971708 71.4847645,51.2652884 70.8347184,54.3952122 C70.7534626,54.8657236 70.611265,55.5612622 70.3065559,55.9090316 Z" id="Shape" fill="#000000"></path>
                    <path d="M77.1117267,25.1212187 C75.7303786,24.8348205 74.6334257,24.4052231 72.9270545,24.5075082 C71.2003693,24.6302503 72.4801477,24.8961915 70.6722068,24.4665941 C70.1034164,24.343852 69.534626,24.343852 68.9455217,24.364309 C68.8642659,24.282481 68.7830102,24.2006529 68.7017544,24.1392818 C69.7580794,23.4232862 71.9113573,23.3414581 73.1708218,23.5460283 C74.8365651,23.8119695 75.9741459,24.3847661 77.1117267,25.1212187 Z" id="Shape" fill="#FFFFFF"></path>
                    <path d="M13.2650046,34.6541893 C12.2899354,45.9260065 17.0027701,54.3542982 21.7156048,61.8415669 C22.6906741,63.4167573 24.498615,65.6874864 26.6518929,68.1832427 C31.1412742,66.6285092 37.0932595,65.6874864 43.5937211,65.6874864 C50.6629732,65.6874864 57.0618652,66.7921654 61.6731302,68.61284 C63.8264081,66.1579978 65.5530933,63.9690968 66.4265928,62.5371055 C69.189289,58.0570185 72.3379501,53.5769314 74.1052632,46.9693145 C78.8790397,28.9875952 66.7313019,10.3103373 52.3896584,16.5292709 C50.3582641,17.4089227 48.8753463,18.4113166 47.55494,19.8023939 C45.9907664,21.4594124 46.11265,21.9912949 44.8531856,23.8119695 C44.4265928,24.4256801 44.365651,24.4461371 43.9390582,24.9371055 C41.3591874,17.0816104 33.4164358,13.5220892 26.8956602,15.3018498 C19.5420129,16.8361262 13.8947368,27.1873776 13.2650046,34.6541893 Z" id="Shape" stroke="#FFFFFF" fill="#FFFFFF"></path>
                </g>
            </g>
        </g>
    </g>
</svg>